<svg xmlns="http://www.w3.org/2000/svg" viewBox="0 0 127.76 127.95"><defs><style>.cls-1{fill:#b31b1b;}.cls-2{isolation:isolate;}.cls-3{fill:#fff;}</style></defs><g id="Layer_2" data-name="Layer 2"><g id="Layer_1-2" data-name="Layer 1"><rect class="cls-1" width="127.76" height="127.95"/><g class="cls-2"><path class="cls-3" d="M16.17,70.23a7.44,7.44,0,0,1-4.9,2.34,4.49,4.49,0,0,1-3.22-1.21,4.06,4.06,0,0,1-1.28-3.07,4.41,4.41,0,0,1,2.15-3.93A11.5,11.5,0,0,1,15.08,63h.67V61.11c0-1.81-.93-2.72-2.79-2.72a10.44,10.44,0,0,0-4.84,1.38V57.43a14.18,14.18,0,0,1,5.36-1.16,5.48,5.48,0,0,1,3.86,1.17,4.85,4.85,0,0,1,1.24,3.67v7.07c0,1.61.5,2.42,1.5,2.42a5.07,5.07,0,0,0,.54,0l.2,1.56a4.81,4.81,0,0,1-2.12.46C17.37,72.57,16.53,71.79,16.17,70.23Zm-.42-1.54v-4l-.95,0a7.1,7.1,0,0,0-3.76.88A2.64,2.64,0,0,0,9.6,67.83a2.29,2.29,0,0,0,.72,1.72,2.41,2.41,0,0,0,1.75.71A5.86,5.86,0,0,0,15.75,68.69Z"/><path class="cls-3" d="M23.34,72.21V56.61h2.83v2.93a5.29,5.29,0,0,1,4.89-3.27,5.72,5.72,0,0,1,.9.07V59a4.24,4.24,0,0,0-1.29-.24q-2.69,0-4.5,3.19V72.21Z"/><path class="cls-3" d="M31.75,72.21l7-10.67L32.1,51h3.56l5.11,8,5.38-8H49l-6.8,10.27,7,11H45.6l-5.4-8.43-5.59,8.43Z"/><path class="cls-3" d="M51.74,53.78V51h2.83v2.83Zm0,18.43V56.61h2.83v15.6Z"/><path class="cls-3" d="M62.45,72.21l-5.81-15.6h2.83L64,68.75,68.8,56.61h2.64l-6.16,15.6Z"/><path class="cls-3" d="M73.46,72.21V68.66H77v3.55Z"/><path class="cls-3" d="M87.8,72.57a6.86,6.86,0,0,1-5.35-2.22,8.55,8.55,0,0,1-2-5.94,8.5,8.5,0,0,1,2-5.95,7.85,7.85,0,0,1,10.88,0,8.45,8.45,0,0,1,2,5.92,8.54,8.54,0,0,1-2,6A7.17,7.17,0,0,1,87.8,72.57Zm0-2.12c3,0,4.5-2,4.5-6.07s-1.48-6-4.44-6-4.43,2-4.43,6S84.93,70.45,87.84,70.45Z"/><path class="cls-3" d="M98.74,72.21V56.61h2.83v2.93a5.28,5.28,0,0,1,4.88-3.27,5.84,5.84,0,0,1,.91.07V59a4.24,4.24,0,0,0-1.3-.24q-2.69,0-4.49,3.19V72.21Z"/><path class="cls-3" d="M109.8,77.4l.33-2.46A11.2,11.2,0,0,0,115,76.11q4.78,0,4.79-5.08V68.58a5.32,5.32,0,0,1-5.14,3.27,5.44,5.44,0,0,1-4.46-2,8.49,8.49,0,0,1-1.65-5.5,8.73,8.73,0,0,1,1.88-5.8,6.06,6.06,0,0,1,4.87-2.24,5.8,5.8,0,0,1,4.5,2.12V56.61h2.84V68a27.49,27.49,0,0,1-.38,5.42,5.86,5.86,0,0,1-1.43,2.88c-1.23,1.32-3.15,2-5.76,2A16.6,16.6,0,0,1,109.8,77.4Zm10-10.59V60.33a5.6,5.6,0,0,0-4.07-1.94A3.54,3.54,0,0,0,112.63,60a7.36,7.36,0,0,0-1.1,4.29q0,5.13,3.6,5.13A6.11,6.11,0,0,0,119.76,66.81Z"/></g></g></g></svg>