<svg xmlns="http://www.w3.org/2000/svg" viewBox="0 0 128.43 125.26"><defs><style>.cls-1,.cls-2{fill:#181616;}.cls-1{fill-rule:evenodd;}</style></defs><g id="Layer_2" data-name="Layer 2"><g id="Layer_1-2" data-name="Layer 1"><path class="cls-1" d="M64.22,0a64.22,64.22,0,0,0-20.3,125.15c3.2.6,4.38-1.39,4.38-3.09,0-1.53-.06-6.59-.08-12-17.87,3.88-21.64-7.58-21.64-7.58-2.92-7.42-7.13-9.4-7.13-9.4-5.83-4,.44-3.9.44-3.9,6.45.45,9.84,6.62,9.84,6.62,5.73,9.82,15,7,18.69,5.34.58-4.15,2.24-7,4.08-8.59C38.24,91,23.24,85.47,23.24,60.86a24.82,24.82,0,0,1,6.62-17.23c-.67-1.62-2.87-8.15.62-17,0,0,5.39-1.72,17.66,6.58a60.93,60.93,0,0,1,32.16,0C92.56,24.91,98,26.63,98,26.63c3.49,8.85,1.29,15.38.63,17a24.81,24.81,0,0,1,6.61,17.23c0,24.67-15,30.1-29.33,31.69,2.31,2,4.36,5.9,4.36,11.89,0,8.59-.08,15.51-.08,17.62,0,1.71,1.16,3.72,4.42,3.08A64.23,64.23,0,0,0,64.22,0Z"/><path class="cls-2" d="M24.32,92.2c-.14.32-.64.42-1.1.2s-.73-.65-.57-1,.64-.42,1.1-.2.73.65.57,1Z"/><path class="cls-2" d="M26.92,95.1c-.3.29-.9.15-1.31-.29a1,1,0,0,1-.19-1.34c.32-.28.9-.15,1.32.3s.5,1,.18,1.33Z"/><path class="cls-2" d="M29.46,98.8c-.4.28-1,0-1.44-.55s-.39-1.26,0-1.53,1,0,1.44.54.39,1.26,0,1.54Z"/><path class="cls-2" d="M32.92,102.37c-.35.39-1.1.29-1.65-.24a1.24,1.24,0,0,1-.36-1.64c.36-.39,1.11-.28,1.66.24s.73,1.26.35,1.64Z"/><path class="cls-2" d="M37.71,104.45c-.16.5-.88.73-1.6.52s-1.21-.81-1.06-1.32.88-.74,1.61-.52,1.2.81,1.05,1.32Z"/><path class="cls-2" d="M43,104.83c0,.53-.6,1-1.37,1s-1.39-.41-1.39-.93.6-1,1.37-1,1.39.41,1.39.93Z"/><path class="cls-2" d="M47.86,104c.09.52-.44,1-1.2,1.19s-1.44-.18-1.53-.69.45-1.07,1.19-1.2,1.44.18,1.54.7Z"/></g></g></svg>