<svg xmlns="http://www.w3.org/2000/svg" viewBox="0 0 104.11 128"><defs><style>.cls-1{fill:#ff2116;}.cls-2{fill:#f5f5f5;}.cls-3{fill:#2c2c2c;}</style></defs><g id="Layer_2" data-name="Layer 2"><g id="Layer_1-2" data-name="Layer 1"><g id="layer1"><g id="g899"><g id="g876"><path id="path890" class="cls-1" d="M13.22,0A13.24,13.24,0,0,0,0,13.22V114.78A13.24,13.24,0,0,0,13.22,128H90.87a13.24,13.24,0,0,0,13.22-13.22V31.27a10.92,10.92,0,0,0-.85-4.82,13.57,13.57,0,0,0-2.62-3.79h0L81.34,3.75l0,0a15,15,0,0,0-4.08-2.61A14.84,14.84,0,0,0,71.4,0H13.22Z"/><path id="rect2684" class="cls-2" d="M13.22,4.34H71.49a12.51,12.51,0,0,1,4,.76,11.29,11.29,0,0,1,2.81,1.77h0L97.55,25.73a10.75,10.75,0,0,1,1.72,2.48,9.23,9.23,0,0,1,.48,2.88v83.69a8.82,8.82,0,0,1-8.88,8.88H13.22a8.82,8.82,0,0,1-8.88-8.88V13.22a8.82,8.82,0,0,1,8.88-8.88Z"/><path id="path2697" class="cls-1" d="M26,76.21c-3-3,.25-7.1,9-11.46L40.53,62l2.15-4.71c1.19-2.58,3-6.81,3.93-9.38l1.77-4.68-1.22-3.46c-1.5-4.26-2-10.66-1.09-13,1.3-3.12,5.52-2.8,7.2.54,1.31,2.61,1.17,7.34-.38,13.29l-1.27,4.89,1.12,1.9a63.43,63.43,0,0,0,4,5.51l3,3.7,3.7-.48C75.16,54.64,79.19,57.24,79.19,61c0,4.72-9.23,5.11-17-.34a23.39,23.39,0,0,1-2.94-2.44s-4.86,1-7.25,1.63-3.7,1.09-7.31,2.31c0,0-1.27,1.84-2.1,3.18-3.07,5-6.66,9.11-9.22,10.61C30.52,77.61,27.51,77.73,26,76.21Zm4.69-1.68c1.68-1,5.08-5.06,7.44-8.79l1-1.51-4.34,2.18C28,69.78,25,73,26.56,74.88c.89,1.08,2,1,4.12-.35ZM74.21,62.32a2.52,2.52,0,0,0-.45-4.41c-1.45-.73-2.61-.88-6.37-.82-2.3.16-6,.62-6.64.76,0,0,2,1.41,2.94,1.93A38.28,38.28,0,0,0,70,62.4c2.11.64,3.33.58,4.25-.08ZM56.71,55A42.86,42.86,0,0,1,53,50.19a27.23,27.23,0,0,1-2.1-3.13s-1,3.29-1.87,5.28l-2.62,6.48-.76,1.47s4-1.32,6.1-1.86S58.3,57,58.3,57ZM51.07,32.42c.25-2.13.36-4.25-.32-5.33-1.9-2.07-4.19-.34-3.8,4.59A33.65,33.65,0,0,0,48,37.92l1,3.18.71-2.39a62.85,62.85,0,0,0,1.32-6.29Z"/><g id="g858"><path id="path845" class="cls-3" d="M31.07,90.05h4.86a13,13,0,0,1,3.77.45,4.39,4.39,0,0,1,2.44,1.93,6.4,6.4,0,0,1,1,3.61,6.62,6.62,0,0,1-.8,3.33,4.83,4.83,0,0,1-2.17,2A10.61,10.61,0,0,1,36,102H34.32v7.66H31.07Zm3.25,2.51V99.4h1.61a4.22,4.22,0,0,0,3-.81A3.52,3.52,0,0,0,39.73,96a3.85,3.85,0,0,0-.55-2.18,2.23,2.23,0,0,0-1.2-1,7.74,7.74,0,0,0-2-.2Z"/><path id="path847" class="cls-3" d="M45.62,90.05H50a10,10,0,0,1,5.11,1.13A7,7,0,0,1,58,94.56a12.14,12.14,0,0,1,1,5,13.73,13.73,0,0,1-.89,5.13,8.12,8.12,0,0,1-2.7,3.62,8.34,8.34,0,0,1-5.16,1.38H45.62Zm3.24,2.6v14.4h1.35a4.55,4.55,0,0,0,4.11-2,9.5,9.5,0,0,0,1.27-5.24q0-7.2-5.38-7.2Z"/><path id="path849" class="cls-3" d="M62.14,90.05H73v2.6H65.38v5.86H71.5v2.59H65.38v8.55H62.14Z"/></g></g></g></g></g></g></svg>