<svg xmlns="http://www.w3.org/2000/svg" xmlns:xlink="http://www.w3.org/1999/xlink" viewBox="0 0 315.97 229.72"><defs><style>.cls-1{fill:#006c92;}.cls-1,.cls-2,.cls-3,.cls-4,.cls-5{fill-rule:evenodd;}.cls-2{fill:url(#linear-gradient);}.cls-3{fill:#0078a7;}.cls-4{fill:#2da2dc;}</style><linearGradient id="linear-gradient" x1="64.26" y1="81.29" x2="315.97" y2="81.29" gradientTransform="matrix(1, 0, 0, -1, 0, 231.72)" gradientUnits="userSpaceOnUse"><stop offset="0" stop-color="#ffb000"/><stop offset="0.11" stop-color="#ffb80a"/><stop offset="0.31" stop-color="#ffce25"/><stop offset="0.5" stop-color="#ffe945"/><stop offset="0.58" stop-color="#ffdf39"/><stop offset="0.86" stop-color="#ffbd10"/><stop offset="1" stop-color="#ffb000"/></linearGradient></defs><g id="Layer_2" data-name="Layer 2"><g id="Layer_1-2" data-name="Layer 1"><path class="cls-1" d="M124.05,168.11l-14.12-10.88C108.83,99.14,93,46,54,0H235.65c8.16,9.5,23.67,73.73,18.91,81.55-.89-2.45-1.7-4.3-2.24-6.23-3.31-11.86-6.62-23.73-9.8-35.62A10.2,10.2,0,0,0,235.45,32c-7-2.35-12.4-6.86-17.14-12.47-1.53-1.81-4.29-3.64-6.49-3.64-30,0-60,.3-89.93.54a15.1,15.1,0,0,0-2,.38C116,23.37,111,29.28,102.27,31.48c1.32,4.32,2.25,8.16,3.65,11.82,8.4,21.86,14.44,44.3,17,67.62C125,129.46,126.46,148,124.05,168.11Z"/><path class="cls-2" d="M107.16,169.85c5,4.05,10.46,7.54,16.32,11.72A702.58,702.58,0,0,1,316,71.14c-72.31,42.43-142,88-192,158.58-1.74-2.23-2.82-3.39-3.65-4.71q-27.11-43.15-54.14-86.36a34.48,34.48,0,0,1-1.89-4.06S92.78,158.23,107.16,169.85Z"/><path class="cls-3" d="M23.61,20.16h30C78,59.49,97.41,101.38,99.33,149.66,84.39,101,58.21,58.86,23.61,20.16Z"/><path class="cls-4" d="M1.69,53.69,31.27,52.3c23.59,26.64,45.47,54,53.76,89.6-21.16-35.56-52.12-61.66-83.85-87C.88,54.54,0,53.76,0,53.76S1.17,53.7,1.69,53.69Z"/><path class="cls-5" d="M64.42,134.55l0,0Z"/></g></g></svg>