<svg xmlns="http://www.w3.org/2000/svg" xmlns:xlink="http://www.w3.org/1999/xlink" viewBox="0 0 128.7 122.92"><defs><style>.cls-1,.cls-8{fill:#fff;}.cls-2{fill:url(#radial-gradient);}.cls-3{fill:#5a5a5a;stroke:#5a5a5a;}.cls-3,.cls-4,.cls-5,.cls-8{stroke-width:0.14px;}.cls-4,.cls-5{stroke:#000;}.cls-5{stroke-linecap:round;stroke-linejoin:round;}.cls-6{fill:none;}.cls-7{fill:url(#radial-gradient-2);}.cls-8{stroke:#fff;}</style><radialGradient id="radial-gradient" cx="-226.09" cy="223" r="45.62" gradientTransform="matrix(0, 2.14, -2.18, 0, 515.16, 523.57)" gradientUnits="userSpaceOnUse"><stop offset="0" stop-color="#fff"/><stop offset="0.24" stop-color="#fff"/><stop offset="0.33" stop-color="#eaeaea"/><stop offset="0.68" stop-color="#c9c9c9"/><stop offset="0.7" stop-color="#c9c9c9"/><stop offset="0.89" stop-color="#919191"/><stop offset="1" stop-color="#636363"/></radialGradient><radialGradient id="radial-gradient-2" cx="-93.32" cy="71.44" r="55.16" gradientTransform="translate(112.24 181.32) rotate(90) scale(1.5 1.31)" gradientUnits="userSpaceOnUse"><stop offset="0" stop-color="#c8c8c8"/><stop offset="1" stop-color="#5a5a5a"/></radialGradient></defs><g id="Layer_2" data-name="Layer 2"><g id="Layer_1-2" data-name="Layer 1"><path id="path9071" class="cls-1" d="M36.11,41.67c-.77,0-2.09-.06-2.25-1.46-.09-.71,2.8-3.3,2.08-4.33-.18-.26-.71-.54-1.95-.89-1.47-.33-4.12-.11-8.69,1.54-.21.07.06,0-.1,0a1.65,1.65,0,0,0-.21.07l-.82.3a4.57,4.57,0,0,1-.81.28c-1-3.61,1.7-10.28,4-10.5.93-.1,2,1.2,3.3.47,2.41-1.31,2.65-3.32,2.32-5.79-.25-1.89-2.2-.11-3.51.41s-1.45.89-1.84.51c-1.19-1.15-.53-3.76,4.12-8.9A10.93,10.93,0,0,0,34.2,8.16c.1-1-3.15,1.81-3.48,1.12-.23-.48,2.61-3.23,4.06-4,.67-.35.68.4,1.16.34.63-.07,4.55-3.65,4.29-4.22-.16-.38-3,1.26-3.13.85C37,2,40,.52,40,.52a.3.3,0,0,1,0-.14c-1.18.43-16.72,5.39-28.95,23.7a63.4,63.4,0,0,0,18,88.24A64.44,64.44,0,0,0,118,94.42a63.25,63.25,0,0,0,9.41-47.87c-3.25-16-13.61-30.34-17.46-32.19.77.75,1.28,1.23,1.06,1.5s-1.07.34-1.94-.61-5-4.15-5.49-4.88-.4-1-.14-1a1.8,1.8,0,0,1,.89.2c.18.1-4-3.26-4.3-3.44a3.19,3.19,0,0,0-1.19-.44c-.26.09.67.73.51.88s-.58.07-.92-.23a42.26,42.26,0,0,0-7.57-4.57c-1.66.25-2.72.41-2.9.75s3.74,2.09,4,2.49-.63,1-1.44,1.12C88,6.45,87,5.23,86.71,4.54,85.65,2.12,81.12,3,77.13,5.6c-1.73,1.12-8.46,1.1-8.53.24-.12-1.67.5-2.77-3.58-2.08-2.86.48-3.63,1.5-3.37,1.7.47.39,2.43,1.08,2.59,1.71.1.43-2.46,2.84-9.52,2.35-.7,3.75-.67,4.58,0,5.73a2.6,2.6,0,0,0,2.49,1.43c1.5-.38,3-2.16,4.09-2.18,1.95,0,3.27,1.83,3.17,4.36,0,0,0,0,0,0a1.75,1.75,0,0,1,0,.24v.11C64.2,22,61,21,58.82,20.43,56.06,19.76,56,29,58.65,30.76c-5.1-.54-11.54,1.89-14.94,3.38-2.8,1.23,2.65,3.82,1.71,4.71a13.45,13.45,0,0,1-5.19,2.45A22.23,22.23,0,0,1,36.11,41.67Z"/><path id="path8102" class="cls-2" d="M36.11,41.67c-.77,0-2.09-.06-2.25-1.46-.08-.71,2.8-3.3,2.08-4.33-.18-.26-.71-.54-1.94-.89-1.48-.33-4.13-.11-8.7,1.54-.21.07.06,0-.1,0a1.65,1.65,0,0,0-.21.07l-.82.3a4.57,4.57,0,0,1-.81.28c-1-3.61,1.7-10.28,4-10.5.93-.1,2,1.2,3.3.47,2.41-1.31,2.66-3.32,2.32-5.79-.25-1.89-2.2-.11-3.51.41s-1.45.89-1.84.51c-1.19-1.15-.53-3.76,4.12-8.9A10.93,10.93,0,0,0,34.2,8.16c.1-1-3.15,1.81-3.48,1.12-.23-.48,2.61-3.23,4.06-4,.67-.35.68.4,1.16.34.63-.07,4.55-3.65,4.3-4.22-.17-.38-3,1.26-3.14.85C37,2,40,.52,40,.52a.3.3,0,0,1,0-.14c-1.18.43-16.72,5.39-28.95,23.7a63.4,63.4,0,0,0,18,88.24A64.44,64.44,0,0,0,118,94.42a63.25,63.25,0,0,0,9.41-47.87c-3.25-16-13.61-30.34-17.46-32.19.77.75,1.28,1.23,1.06,1.5s-1.06.34-1.94-.61-5-4.15-5.49-4.88-.4-1-.14-1a1.8,1.8,0,0,1,.89.21c.18.09-4-3.26-4.3-3.45a3.13,3.13,0,0,0-1.19-.44c-.26.09.67.73.51.89s-.58.06-.92-.24a43.51,43.51,0,0,0-7.57-4.57c-1.66.25-2.72.41-2.9.75s3.74,2.09,4,2.49S91.3,6,90.5,6.11C88,6.45,87,5.23,86.71,4.54,85.65,2.12,81.12,3,77.13,5.6c-1.72,1.12-8.46,1.11-8.53.24-.12-1.67.5-2.77-3.58-2.08-2.86.48-3.63,1.5-3.37,1.7.48.39,2.43,1.08,2.59,1.71.11.43-2.46,2.84-9.51,2.35-.71,3.75-.68,4.58,0,5.73a2.6,2.6,0,0,0,2.49,1.43c1.5-.38,3-2.16,4.09-2.18,1.95,0,3.27,1.83,3.17,4.36,0,0,0,0,0,0s0,.16,0,.24a.41.41,0,0,1,0,.11C64.2,22,61,21,58.82,20.43,56.06,19.76,56,29,58.65,30.77c-5.09-.55-11.54,1.88-14.94,3.37-2.8,1.23,2.65,3.82,1.71,4.71a13.38,13.38,0,0,1-5.19,2.45A22.23,22.23,0,0,1,36.11,41.67Z"/><path id="derri_re" data-name="derri  re" class="cls-3" d="M34.92,25.48c4.59.23,7.39-1,10.23-2.16-5.07-3.67,8.36-5.46,4.57-.89,3.49.3,6.25-1.8,9.54-2.68,1.31-.35,4-.33,5.3-.88-.08,3.24-3.5,2.12-5.75,1.57C56.05,19.76,56,29,58.63,30.77c-5.09-.54-11.5,1.89-14.9,3.38-2.8,1.24,2.62,3.81,1.68,4.69a13.33,13.33,0,0,1-5.19,2.47,18,18,0,0,1-4.11.36c-.75-.08-.7-.61.64-2.21,1-1.16,1.45-2-.08-3.2A5.67,5.67,0,0,0,34,35c-1.48-.33-4.14-.12-8.71,1.53.8-4.93,2-6.38,2.9-7.44s2.07-.41,3.72-.19S34.65,27.1,34.92,25.48Z"/><path id="path13898" class="cls-4" d="M40.09.38S37,2,37.09,2.25c.13.41,3-1.2,3.13-.83.25.58-3.67,4.15-4.3,4.22s-.46-.71-1.14-.36c-1.45.75-4.28,3.52-4.05,4,.33.69,3.57-2.12,3.47-1.12a10.8,10.8,0,0,1-2.45,5.27c-4.65,5.14-5.31,7.72-4.12,8.87.39.38,1.82-.48,1.82-.48,1.52-4.44,5.42-6,6.18-10.07.18-.94,0-.95-.92-2.54A13.43,13.43,0,0,1,36.29,8c.63-.38.6.4,1.23.19a7.79,7.79,0,0,0,3.37-2.88c.94-1.21.29-1.44.32-1.85s.31.06,0-.67S40.09.38,40.09.38ZM88,2.61A11.84,11.84,0,0,0,88,4.5c.09.5,1.5,1.21,2.49,1.6C91.32,6,92.17,5.4,92,5S89.83,4.11,88,2.61ZM61.65,5.47a15.09,15.09,0,0,0,.27,3.28c.93-.44,2.44-1.15,2.33-1.58C64.09,6.54,62,6,61.65,5.47Zm37.18.29c-.23.31-.31.45-.39.56.39.3.78.39.93.24S99,6,98.83,5.76Zm4.63,3.57c-.26,0-.37.31.12,1,.69-.77.12-.11.76-.82A1.69,1.69,0,0,0,103.46,9.33Zm6.5,5c-.91.9-.13.15-.89.9.87.95,1.81.76,1.94.6S110.73,15.1,110,14.35Zm-48.6.14c-1.11,0-2.62,1.83-4.12,2.21-1.3.33-1.94-1-2.81-1.84.32,1.92.8,3.78,2.54,4.19S60.44,17,62.07,17c.94,0,2,1.7,2.45,2.23C64.75,16.49,63.4,14.45,61.36,14.49ZM32.63,20.63c-.15,2.56.44,5.24-2,6.55-1.33.73-2.39-.58-3.32-.49-2.29.23-5,6.89-4,10.5a17.55,17.55,0,0,0,1.82-.63c.59-3.18,1.38-6.22,3.32-7.86,1-.85,3.64.75,4.83-.24A5,5,0,0,0,32.63,20.63ZM36,35.88c.74,1-1.88,3.36-2.09,4.32s.81,1.39,1.82,1.38c-.81-.53,1.32-2.13,1.84-3.59C37.74,37.37,37.36,36.82,36,35.88Z"/><path id="path33252" class="cls-5" d="M11.9,72.19c-.92.1-1.24.87-.68,2.25a15.63,15.63,0,0,1-4.81-1.57C6,73.85,8.69,74.4,10,75c.07.47.11,1,.17,1.43a2.67,2.67,0,0,0-.55-.51,2.56,2.56,0,0,0-1.5-.72c-.3,0-.48,0-.65.17C6.88,76,7.19,77,8,77.72s1.94,1.13,2.42.61a.08.08,0,0,0,0,0,7.76,7.76,0,0,0,.75,2.22c.1.1.6.5.58.41a43.14,43.14,0,0,1-1-5.73,7.92,7.92,0,0,0,1.23.27c.31,1.84.09.65,1,5,.41.43.69.72,1.09,1.16-.53-3-.95-3.85-1.12-6,.3.18.55.17.81.31a.9.9,0,0,0-.1-.82c-2.78-.55-2.7-4,2.32-.41,0,0,.82-.34.17-.78C14.36,72.66,12.82,72.09,11.9,72.19ZM8.15,76a2.21,2.21,0,0,1,1.06.48c.5.43,1,1,.61,1.33s-1-.17-1.47-.65-.72-.85-.4-1.12C8,76,8.06,76,8.15,76Z"/><path id="path37146" class="cls-4" d="M11,91.38c1.74.67,2.59,2.8,3,3.26l1.78,1L14.32,92.7c.6-.07,5,2.13,6.89,4.23,1.53,1.69,2.26,3.51,1.14,4.73-.13.14-.78.17-.9-.25a2.18,2.18,0,0,0,.32-2.25,7.31,7.31,0,0,0-1.65-2.53,15.77,15.77,0,0,0-4.35-2.5,41.63,41.63,0,0,0,2.75,5.37,16.07,16.07,0,0,1-2.15-2.74l-1.83-1c.18.26.66,1.19,1,1.76a26,26,0,0,1-1.82-2.78A14.44,14.44,0,0,0,12.61,93a4.62,4.62,0,0,0-1-1A.56.56,0,0,1,11,91.38Z"/><path id="text2439" d="M120.31,50.05c-.75.72-1,1.63-.73,2,.63,1,1.59,0,2-.56a2.13,2.13,0,0,0,.42-1.33C122,49.8,121.57,48.84,120.31,50.05Zm3.78,2c-.07-.35-1.16-4.53-1.18-4.59a.68.68,0,0,0,0-.13c-.05-.17-.33-.15-.52-.19a2.67,2.67,0,0,0-.56,0c-.18,0-.28,0-.29-.07s0-.18.21-.29a3.09,3.09,0,0,1,.83-.31c.37-.09.58-.06.61.1.09.46.21.71.44,1.6l.84,3.32c.09.34.28,1.34.35,1.85s0,.82-.17.9A10.1,10.1,0,0,1,124.09,52.07Zm-.44-.6-1.89,2.15.22.85c0,.18,0,.35.1.61a5.69,5.69,0,0,1,.12,1c0,.37,0,.59-.14.66s-.12-.09-.2-.28a2.81,2.81,0,0,1-.18-.56c-.05-.18-.08-.32-.11-.41l-.31-1.39-1,.81a2.23,2.23,0,0,0-.26.29,1.19,1.19,0,0,1-.29.3,2,2,0,0,1-.77.18q-.58.06-.63-.12a.11.11,0,0,1,0-.09.12.12,0,0,1,.07-.07,10.93,10.93,0,0,0,1.33-.73,14.07,14.07,0,0,0,1.5-1.24c.59-.52,1.07-1,1.47-1.41l.8-.88Zm-3.11-2.2c.36-.21.76-.49,1.13-.4a1.13,1.13,0,0,1,.74,1,2.49,2.49,0,0,1-.29,1.48,4.43,4.43,0,0,1-1,1.31c-1.07.86-1.7.54-2-.08a2.88,2.88,0,0,1,.72-2.6l.18-.17.18-.19a.22.22,0,0,0,0-.15.2.2,0,0,0-.09-.1.24.24,0,0,1-.09-.08v0s0,0,.06,0a.9.9,0,0,1,.27-.1c.11,0,.18,0,.19,0a.53.53,0,0,1,0,.29Z"/><path id="flowRoot2383" d="M67.42,8.31l.79-.38.59,1.54,2.26-1.14c1,3.87.62,7.33-2.21,11.53a4.5,4.5,0,0,1-.77-1c3.18-5.21,2.94-6,2.39-9.39L67,11.33V14l-.93.67,0-3.77L68,9.9m7.59-.54,2.58,4.32-.66.49L75.2,10.53a10,10,0,0,1-1.42,2.19.66.66,0,0,0-.21-.2,1.15,1.15,0,0,0-.17-.19l-.31-.17A17.66,17.66,0,0,0,74.43,9.8,6.43,6.43,0,0,0,75.23,7L76,7a12.68,12.68,0,0,1-.47,2.35"/><path id="path2240" class="cls-6" d="M39.9,0A63.54,63.54,0,0,0,0,58.89c0,35.3,28.81,63.94,64.31,63.94s64.31-28.64,64.31-63.94A63.46,63.46,0,0,0,111.5,15.52c-.73.76-2,.66-3.68-1.19-1.29-1.39-6.22-5.45-4-4.88,1.81.47-4.37-4.35-4.83-3.77s-.14.2-.5.63C95.29,4.23,91.55,1,89.37,2c-1.6.69-1.5.24-1.32,1a5.76,5.76,0,0,0,2.4,3.18s-.09.22-2-.06c-2.23-.34-1.3-2.86-3.91-2.82-1.5,0-3.16-.07-4.33.71C76.5,6.4,73.77,6.23,70,6.37c-2.91.11,0-2.27-2.58-2.65a9.35,9.35,0,0,0-4.77.73c-.93.54-1.3,0-.72,4.38-2.76,1.23-6.31.38-7,1s-1.29,5.7.63,8.3c2.45,3.3,4.87-2.22,7.17-.87.7.4,1.72,1.66,1.44,1.88-1.23.94-2-.06-5.12.68-1.28.31-5.66,2.8-9.3,2.62a1.67,1.67,0,0,0,.66-1c.44-1.43-2.34-2.95-6.36,0-.3.22.6,1.25,1,1.9-1.59.41-4.22,2.38-10.21,2.11.36-2.62-2.13-5-2.76-5-.88.08-1.81,1-2.8,1.47a21.14,21.14,0,0,1,2.11-3.56c2.2-2.53,3.48-3.73,4.31-7,.09-.32.47-.15-1-2.12,2.75-2.53,1.74-.76,2.91-1.13s3.63-3.66,3.14-4.62C40.13,2.28,40.87,2.09,39.9,0Z"/><path id="path10969" class="cls-3" d="M125.35,67.59c1.27-1.89-.58-2.26-.37-3.59a21.17,21.17,0,0,1,3.45-7.06c-.81-.19-1.55-8.88-1.2-9.47-.53.32-.13,6,.8,9.47a24.83,24.83,0,0,0-3.3,7C124.61,65.54,126.06,66.16,125.35,67.59Z"/><path id="text2537" d="M29.61,8.06a19.07,19.07,0,0,0,1.5-1.55c-.12-.1-.95.18-1.23.29A53.55,53.55,0,0,0,25.79,11l-.6.09a59.44,59.44,0,0,1,6.17-5.88l.5-.09-1.6,1.37c.18,0,.48-.15.62-.18a2.29,2.29,0,0,1,.93-.11c.24.11-1,1.19-1.55,1.77Z"/><path id="text2557" d="M32.51,47.3a.85.85,0,0,0-.28.1.62.62,0,0,0-.28.37.45.45,0,0,0,.07.37.59.59,0,0,0,.41.24l.25,0,.2,0c.15,0,.2.14.16.34a.91.91,0,0,1-.45.56,4,4,0,0,1-.79.34l-.05.24c1.1-.21,1.75-.68,1.92-1.42a.91.91,0,0,0-.14-.69.84.84,0,0,0-.67-.41A1,1,0,0,0,32.51,47.3Zm6.62-.37A7.94,7.94,0,0,0,35,48.67a3.94,3.94,0,0,0-1.46,3.15,2.93,2.93,0,0,0,1.31,2.31,4.24,4.24,0,0,0,2.4.69l0,.56-1.12.2a2.31,2.31,0,0,1-1.09,0,1.32,1.32,0,0,1-.67-.65l-.61,0,.17,1.67,4.95-.7-.06-1.47a3.59,3.59,0,0,1-2.43-1,3.16,3.16,0,0,1-.94-1.8,3.55,3.55,0,0,1,1-2.84,4.94,4.94,0,0,1,2.63-1.23,5.39,5.39,0,0,1,3.12.19,3,3,0,0,1,1.48,2c.23,1.64-.52,3.29-2.83,4.42l.07,1.39,5.41-.78L46.14,53h-.51a10.44,10.44,0,0,1-.58.89c-.13.2-.32.34-.87.42l-1.61.23,0-.59a5.92,5.92,0,0,0,2.57-1.66,3.85,3.85,0,0,0,.68-2.75,3,3,0,0,0-2-2.36A9.66,9.66,0,0,0,39.13,46.93Z"/><path id="text2561" d="M112,24.92c-.39.06-1.23.3-1.36.64s-.23.6.61,1c.29.13.85-.27,1.33-.29.94,0,1.7,1.59,1.25,2.81A4,4,0,0,1,111.59,31a2.5,2.5,0,0,1-1.7.11A1.69,1.69,0,0,1,108.74,30a5.34,5.34,0,0,1-.33-1.35c0-.42.34-.5.52.46a1.71,1.71,0,0,0,1,1.05,2.55,2.55,0,0,0,1.56-.23,3.8,3.8,0,0,0,1.42-1.23c.7-.94.43-1.64,0-1.79-.23-.07-.88.38-1.37.33a2.07,2.07,0,0,1-1.55-1.6,1.24,1.24,0,0,1,.7-1C111.18,24.24,112.13,23.79,112,24.92Zm2.17,5.38-.11,1-1.16-.11.19-1Zm-1.56,1-.1,1-1.15-.1.08-1Z"/><path id="text2565" d="M38.08,74l-.21.11a5.7,5.7,0,0,1,1.4,1.18c.2.29.43.3.72,0s.35-.49.17-.63A9.6,9.6,0,0,0,38.08,74Zm5.5-.11c.14.67.62,3.57,1.75,8.38l-1.24,0-.62-.23.69.66a11,11,0,0,1,1.71-.33l9.84-1.12-1.82-.68-1.14.71-1.69-7.43.83-.36L50.43,73l-1,.61-4.32.5Zm1.28.49,4.84-.54.42,2.3-4.71.55Zm-3.93,1.09-.47.44-4.64.45.62.25a8,8,0,0,1,1.43-.24l2.45-.26a9.63,9.63,0,0,1-2,2.46,16.15,16.15,0,0,1-2.59,1.83l.23.1a21.17,21.17,0,0,0,3.18-1.85c.23,2.36.35,3.8.35,4.32l1.05-.47c-.1-.48-.25-1.73-.45-3.79a6.86,6.86,0,0,1,2,1c.32.28.58.32.75.11a.57.57,0,0,0,.15-.58c-.06-.18-.63-.37-1.72-.57l1.56-1.21.56-.15-1.26-.4a5.19,5.19,0,0,1-1.16,1.71L40,78.44,40,78c.44-.53.89-1.12,1.36-1.76l.78-.31Zm4.51,1.44,4.73-.54.49,2.35-4.8.54Zm.47,2.57,4.84-.56.55,2.67-4.83.56Z"/><path id="text2569" d="M91.59,57.76a1.28,1.28,0,0,1,.69,0c.21,0,.34.13.38.27q.15.5-.84,1.2a12.84,12.84,0,0,1-3.4,1.45,12.54,12.54,0,0,1-3.62.72c-.81,0-1.27-.18-1.37-.52a.44.44,0,0,1,.16-.43A1.39,1.39,0,0,1,84.2,60a1.52,1.52,0,0,1,.72-.06,4,4,0,0,1,1,.39,3.24,3.24,0,0,0,2.43,0,3.2,3.2,0,0,0,2-1.38,3.8,3.8,0,0,1,.59-.88,1.58,1.58,0,0,1,.66-.36Zm1.08,3.17c-.14-.42-.71-.23-1.56,0L91,60.67l5.13-1.8.06.21c-.91.44-1.64.85-1.5,1.28l1.36,6.06c.06.17.69,0,1.62-.17l.06.2-5,1.91-.07-.21c1-.51,1.65-.88,1.46-1.46l-1-4.84-6.35,7.92a6.44,6.44,0,0,0,1.78-.16l.06.21L83,71.54l-.06-.21c1.18-.57,1.79-.86,1.73-1.17l-1.34-6.11c0-.35-1.09-.3-2-.08l-.06-.21,6-1.89.07.21c-.64.31-2.23.88-2.06,1.42l1.13,5.13Z"/><path id="text2601" d="M124.67,74.24a31.09,31.09,0,0,0-2,3.82l-1,1.13.07-2.66c-.43.8-1.19,1-1.29.86s0-1.06.46-1.62,1-1.2,1.51-1.25c.74-.09.12,2,.19,3a26.94,26.94,0,0,1,2.22-4.08l.17-2.1c0-.39-.25-.58-.68-.37a5.45,5.45,0,0,0-1.42,1.25,10.37,10.37,0,0,0-2.13,3l-1.1,1c.17-2,3.11-5,5-6.62.42-.35.85-.22,1,.29a19,19,0,0,1-.07,2.31c.65-.61.78-.61.68.17a7.89,7.89,0,0,1-1.26,2.79C124.53,75.77,124.55,75.07,124.67,74.24Zm-3.34,1.5c-.29.35-.44.52-.41.84s.23.08.48-.14a1.08,1.08,0,0,0,.42-.84C121.8,75.2,121.52,75.5,121.33,75.74Zm4.08-2.58c-.15.31-.21.73-.1.8s.22-.23.34-.51.24-.66.13-.76S125.5,73,125.41,73.16Z"/><path id="text2607" d="M87.88,31.16a.19.19,0,0,1,0,.14.16.16,0,0,1-.11.09,2.27,2.27,0,0,0-.89.56A2.6,2.6,0,0,0,86.33,33l-1.85,7.42c0,.07-.07.12-.2.16a.31.31,0,0,1-.25,0L80.75,38l-1.63,4a.3.3,0,0,1-.2.16c-.12,0-.2,0-.26,0l-5.91-5a2.52,2.52,0,0,0-1-.57,2.91,2.91,0,0,0-1.25.07.2.2,0,0,1-.13,0,.11.11,0,0,1-.09-.08c0-.11,0-.17.08-.2.36-.11.73-.21,1.13-.3s.71-.19,1-.29.71-.22,1.14-.38L74.84,35c.09,0,.15,0,.18.12s0,.16,0,.17a2.13,2.13,0,0,0-.79.45.48.48,0,0,0-.18.5.57.57,0,0,0,.23.29l4.86,4.07,1.14-3-2.51-2a3.34,3.34,0,0,0-1-.62,2.13,2.13,0,0,0-1,0,.17.17,0,0,1-.12,0A.13.13,0,0,1,75.5,35c0-.1,0-.16.07-.19a9.14,9.14,0,0,1,1-.26c.29-.07.6-.15.93-.25s.65-.21,1-.35l1.08-.36c.09,0,.14,0,.18.11s0,.16,0,.18c-.7.25-1,.5-.94.74s.16.25.4.43l1.65,1.24.7-1.81a1,1,0,0,0,.08-.6c-.1-.33-.51-.4-1.23-.2-.07,0-.11,0-.14-.12a.13.13,0,0,1,0-.12.15.15,0,0,1,.08-.08l1-.26c.36-.08.66-.16.89-.23l.71-.25c.4-.15.74-.27,1-.35.06,0,.11,0,.13.1a.16.16,0,0,1-.12.23,2.78,2.78,0,0,0-.93.54,3.69,3.69,0,0,0-.68,1.15l-1,2.4,3,2.25,1.27-5.72a1,1,0,0,0,0-.54c-.11-.35-.52-.43-1.24-.24-.07,0-.11,0-.15-.12a.15.15,0,0,1,.1-.2c.26-.08.57-.16.94-.25s.62-.15.84-.22.5-.16.81-.28.59-.22.85-.3c.07,0,.12,0,.15.1Z"/><path id="path2724" d="M99.42,92.59c0-2.94-.06-3.06-.16-5.15-3.44,1.32-9,3.55-9.81,3.72s-2,.08-1.86-.59a4.49,4.49,0,0,1,2.23-2.06c-.31.41-.54.79,0,.82.69,0,3.57-1.15,5-1.61s4.28-2,5.14-1.7.68,3.22.68,5.29c0,.3.09.55,0,.76C100.31,92.45,99.82,92.5,99.42,92.59Z"/><path id="flowRoot2567" d="M51.44,103.1c.21.26,1.09.29,1.54.45a18.25,18.25,0,0,0,3.42.19,4.81,4.81,0,0,0,2.13-.7,1,1,0,0,0,.55-.85c0-.73-2-1.35-3.59-1.68s-4.13,0-6.13.07c-2.47.09-4.32.2-6.51.22-.26,0-.61-.24-.6-.48s.52-.52.58-1c0-.11,0-.21,0-.24a2.72,2.72,0,0,0-.58,0,3.25,3.25,0,0,1-.7.11,1.87,1.87,0,0,1-.75-.1c-.2-.08-.81-.43,0-.57.3,0,1.82-.27,2.43.24s-.05,1.19-.05,1.19,2,0,3,0c2.63-.08,8.67-.61,8.67-.61a5.78,5.78,0,0,0,1.61-.46c.24-.15.41-.31.34-.46-.3-.58-.67-.56-1.47-.71,1.18-.25,2.44,0,2.51.75s-.85,1.27-1.89,1.69a10.78,10.78,0,0,1,3.16,1c.67.4,1.12.72,1.15,1.2a1.45,1.45,0,0,1-.84,1.33,6.41,6.41,0,0,1-3.28.85,13.78,13.78,0,0,1-4.37-.63,8.48,8.48,0,0,1-3.46,1,8.74,8.74,0,0,1-3.42-.39c-.71-.36-1.14-.62-1.17-1.07a.74.74,0,0,1,.62-.86,7.35,7.35,0,0,1,2-.17c1.22.08,2.6.61,1.81,1.29-.18.15-.49.11-.9,0,.89-.94-2.65-.79-2.62-.36q0,.39.72.63a11.83,11.83,0,0,0,2.82.22,8.38,8.38,0,0,0,2.3-.58C50.87,103.4,51.24,103.38,51.44,103.1Zm-9.36-4.33c0-.08-.33-.09-.51-.09s-.5,0-.5.11.3.15.48.14S42.08,98.85,42.08,98.77Z"/><path id="path2658" d="M98.31,15c-2-4.27-2.61-5.34,0-5.77-.78-.41-1-.76-1.51-.62-1.17.31-2.83-.92-3.58-1.24a10.47,10.47,0,0,1,2.32-.6c.11,0,1.13.4,1.25.38a5.63,5.63,0,0,0-2.37-1.54c-1.62.38-4,1-5,1.33.34.73,3.86,1.15,5.69,2.1C95.13,9.63,96,13.76,98.31,15Z"/><path id="text2170" d="M10.59,46.88l-.51,1.22a3.92,3.92,0,0,1-.29,2.15l1.58,0c0-.59.65-1.53-.6-2.12L11.18,47l1.48,0a7.82,7.82,0,0,0-.93,3.26h.52a14.69,14.69,0,0,0-.93,4.74,5.91,5.91,0,0,0-4.39-1.21,8.74,8.74,0,0,1,1-2.56l-.29,0,.4-.94,1.4.07a2.9,2.9,0,0,0,.36-2.11,3.29,3.29,0,0,0-1.35,0c-.35.21-.64.59-.74,1.7a4,4,0,0,1,.21-2.33A3.15,3.15,0,0,1,8.49,47Zm.59,4.86c-.41-.63-2.54-.61-2.78-.6a4,4,0,0,0-.75,1.56c1.35-.17,2.9,1,3.43,1.56C11.06,53.52,11.21,52.57,11.18,51.74Zm1.55-5.35c-.27,0-.83-.51-1.4-1.06s-2.07-1.19-2.57-.6a.78.78,0,0,0-.22.61.43.43,0,0,0,.3.36,2,2,0,0,0,.62.11c-.06.49-.1.82-.36.83a1.25,1.25,0,0,1-1.24-1.45,1.83,1.83,0,0,1,.42-1,1.61,1.61,0,0,1,1.35-.58C10.79,43.53,11.91,45.5,12.73,46.39Z"/><path id="path2576" d="M13.53,28l2.24-4.32,1.32-.33.56.44-1.54,3.07c-.15.31-.06.64.33.61s1.08-.2,1.24-.55l1.19-2.54-.47-.85,1.33-.63.28.31.44,0-.81.49-.29-.39-.54.26.45.81L18.1,26.82a2.23,2.23,0,0,1-2.24.85c-.27-.12-.18-.6-.06-.86l1.41-2.94L17,23.63l-1,.23-1.44,2.73c.24-.17.9-.37.48.4a5,5,0,0,1-1.07,1.06Zm.52-.43.33-.64c.41-.34.56-.28.4,0A1.43,1.43,0,0,1,14.05,27.55Z"/><path id="path33245" class="cls-7" d="M46.89,64c-1.58,1.23,1.82,2.18,2.48,3.35s-1.56,2.41-1.52,2.41,2.51-1.47,1.88-2.58S45.86,65,46.89,64Zm-7-63.6a3.33,3.33,0,0,0-.37.14,16.07,16.07,0,0,0-2.81,1.74c0,.21.71.68,2.62-.28a16.83,16.83,0,0,1-3.32,3.09c-.52.31-.38-.42-1.15-.09-1.16.52-4.27,2.8-4.49,4.58-.1.83,3.56-1.82,3.37-1.07-.24.95-1.76,4.9-4.52,6.85-2.49.45-2.63.43-4.32.76-2.22,0,4.24-3.67,1.23-3.82-3.79-.19-4.4,1.83-5.25,3.48,1-1.63,1.72-3.64,5.31-3.42,2.47.15-3.76,3.87-1.35,3.87,1.7-.33,1.95-.33,4.43-.78,2.77-1.95,4.35-6,4.58-7,.17-.76-3.56,1.93-3.42,1.09C30.72,7.9,33.81,5.54,35,5c.65-.3.55.48,1.06.17a16.41,16.41,0,0,0,3.6-3.43c-1.91,1-2.76.69-2.73.48A18.28,18.28,0,0,1,39.94.36Zm-19,15.38a3.28,3.28,0,0,1-3.76,1.94c1.71-2,4-4.4,5.47-6.26-.95.7-1,.57-.53.08-.65.69-.83,1,.23.2-1.81,2-3.57,4-5.28,6.06C19.51,18.08,20.28,17,20.93,15.74ZM39.46.53l-1.66.56c-2.37,1.21-4.59,2.6-7,3.73C29.05,6.38,28,7,26.66,8.22c.25-.56,0-.49-.59-.14.47-.26.72-.25.48.28,1.35-1.24,2.55-1.93,4.29-3.48,2.43-1.14,4.65-2.52,7-3.73C38.78.8,39.15.64,39.46.53ZM91.81,2.24c1.87,1,4.12,2.76,6.32,4A45.18,45.18,0,0,0,91.81,2.24Zm-7.69.93A12,12,0,0,0,82,3.39c5.78-.78,1.58,4.22,9,2.75C85.26,6.58,88,3.22,84.12,3.17Zm-18,.48a8.73,8.73,0,0,0-4.27,1.29c1-.7,4.28-1.39,5.61-.9s-.85,1.2,1,2.3c.75.44,3.52.46,5.95,0a16.86,16.86,0,0,1-5.55-.23c-.93-.32.26-2-.87-2.35A5.06,5.06,0,0,0,66.16,3.65ZM78.2,5c-.26,1,3.51,5.73,6.26,5.81.82,0,1.17-.87,1.74-1.43s.94-.92,1.26-1-.66-.41-1.26,0S85.05,10,84.54,10.1C82.75,10.54,79.19,5.72,78.2,5Zm-16.54.23a.18.18,0,0,0,0,.16A.29.29,0,0,1,61.66,5.22Zm37.2.5s.29.25.48.48A1.26,1.26,0,0,0,99,5.78c.52-.11,4,2.66,4.49,3.06.76.66-.78,0-.7.59.13.93,3,3.46,5.47,5.81-1.27.43-2.86,2-2.86,3,0,1.65,2.41,2.3,3.2,3.34s-.49,1.54-3.34,2.35c1.58.69,4.81-.29,4.21-2.16-.67-2-2.85-1.59-3.28-3.45-.17-.7,2.2-2.49,2.61-2.64,2.69,2,6.58,6.36,6.29,7.33-.11.33-1.3-.86-1.94-.51-1.12.62,3,6.91,4.29,7.47.47.21.78-3.08.4-3.09-.78,0-.07,2.54-.54,2.3s-3.7-4.35-3.62-5.83c0-.53,2,.64,2-.09-.06-1.19-3.84-5.49-6.93-8.11-4.46-4.24-5.78-5.32-5.53-5.67s1.35.31,1.12,0a21.21,21.21,0,0,0-5.08-3.68C99,5.71,98.87,5.7,98.86,5.72Zm.48.48a.55.55,0,0,1,0,.42l0,0C99.51,6.47,99.44,6.33,99.34,6.2Zm0,.42a.31.31,0,0,1-.25.08l.08,0C99.32,6.77,99.36,6.72,99.39,6.62Zm-1.15-.37a2.76,2.76,0,0,0,.87.45C98.82,6.57,98.54,6.41,98.24,6.25ZM87.55,8.78c1.68,1,3.82,2.93,4.29,4.32.38,1.13-.91.72-2.52.73,1.54.62,3.56.78,3.36-.61C92.44,11.45,89.53,8.77,87.55,8.78Zm-26.22.37c-2.2.72-4.17.29-6.57.45,0,.07,0,.21,0,.3C56.87,9.76,58.91,10.07,61.33,9.15Zm-6.63.95a23.7,23.7,0,0,0-.42,3.79C54.29,12.83,54.57,11.16,54.7,10.1ZM25.42,12.46c-1.05.06-2.53.61-2.83,1.23-1.29,2.65-3.17,5.13-5.7,4.33-1.59,1.34-4.85,5.48-4.8,7.35,0,.42,1.89-2.05,2.05-1.63.26.71-.59,2.43-1.32,3.62a9.26,9.26,0,0,1-2.3,2.92c-.17.11-.39-1.47-.65-1.12C8.09,31.58,6,35.27,6.08,37.64c0,1.35,2.47,2.28,4.13,0,.58-.8-.07-3.46.65-4.18a4.28,4.28,0,0,1,2.21-1.18c1-.18,3.1.2,2.95,1.18-.28,1.8-2.8,3.13-1.85,4.07,1.56,1.53,6.49,1.18,8.87-.2-1.13-3.68,1.43-10,4.1-10.86.92-.29,1.75.9,2.92.59,2.14-.59,2.63-2.69,2.66-4s.34-2.75-.73-2.5c-1.36.33-3.68,2.9-4.74,1.91-1.72-1.61.85-4.57,2-6.74-1.17,0-4.79,1.11-5.47.51,0,1.08,3.7-.13,5-.14-1.17,2.16-3.47,4.91-1.85,6.62.83.88,3.32-1.27,4.69-1.6,1.07-.25.76,1,.73,2.19s-.28,2.9-2.42,3.48c-1.16.32-1.88-1-2.8-.73-2.67.83-5.77,7.41-4.63,11.09-2.38,1.38-6.36,1.3-7.92.28-1.12-.72,1.46-2.35,1.74-4.15.15-1-2.13-1.44-3.09-1.27a6.08,6.08,0,0,0-2.61,1.32c-.71.73,0,3.46-.67,4.19-1.66,1.81-3.62,1.4-3.65,0-.07-2.37,2-5.72,3.51-7.91.25-.36.47,1.08.64,1a12.36,12.36,0,0,0,2.47-3c.8-1.13,1.84-3.56,1.49-4.35-.18-.42-2.21,2.06-2.11,1.65.48-1.87,3.1-5.28,4.69-6.62,2.53.8,4.41-1.7,5.7-4.35.35-.71,2.23-1.31,3.26-1.21a.75.75,0,0,1,.33.08c.07-.18,0-.3-.45-.33A1.84,1.84,0,0,0,25.42,12.46Zm.87.36c-.22.59-2.32,1.81-2.61,3.06a.37.37,0,0,0,.12.37.41.41,0,0,1,0-.11C24.14,14.65,27,13.21,26.29,12.82Zm62,.37c-.73,0-1.16.74-1.15,1.52,0,1.23,2.89,7.05,5.19,7.83C88.46,25,87.6,24.29,82,25.18c3.66-.24,8.47.51,11.73-2.87-2.89-1.39-4.66-4.6-5.55-7.58-.34-1.11.26-1,.92-1.23A1.53,1.53,0,0,0,88.25,13.19Zm-34,.9a1.13,1.13,0,0,0,.14.62l.09.08a1.05,1.05,0,0,1-.17-.37A1.75,1.75,0,0,1,54.28,14.09Zm6.63.05a1.46,1.46,0,0,0-.37,0c-1.84.47-3.17,2.32-4.46,2.25-.55-.55-.84-.82-1.1-1.07,1.07,1.21,1.36,1.53,2.42,1.18,1.59-.53,2.66-2.18,4.49-2.11a1.55,1.55,0,0,1,.31.06A3.34,3.34,0,0,0,60.91,14.14Zm-45,3.48,0,.06.59.22c-1,1.16-4.69,4.61-4.72,7.36a.6.6,0,0,0,.17.48c.19.17.62-.22,1.6-1.24,0,0,.24-.26.25,0,0,.78-2.29,4.23-2.83,4.86-.3.34-.35.33-.45.06-.24-.65-.32-1-.45-.93A18.79,18.79,0,0,0,6.7,33.82a19.19,19.19,0,0,0-1.07,3,4.1,4.1,0,0,0-.87-.62l0,.19a2.14,2.14,0,0,1,1,.87A20.81,20.81,0,0,1,10,28.66c.23-.24.49,1.36.73,1.09,1.33-1.42,3.23-4.62,3.17-5.36s-1.37,1.2-1.79,1.26a.27.27,0,0,1-.26-.19c-.19-2.16,2.55-5.27,4.78-7.55Zm84.52,1.27c-3.2-.07-7.27,2.51-6.79,3,.66.68,4.24-3.32,8.81-2.47A4,4,0,0,0,100.46,18.89Zm.45.76c4.07.63-.38,5.72,5.42,4.91C101.54,24.17,106.06,19.41,100.91,19.65Zm-23.81.58c-4.84.16-9.57,2.37-8.08,4.27.73.93,4,1.88,3.23,2.86-1.61,2.2-5.59,2.43-12.69,3.18,10.6-.23,11.35-.85,13.7-3,1.6-1.47-2.64-2.26-3.29-3.76s5.68-3.71,10.25-3.31a14,14,0,0,0-2.16-.23C77.74,20.23,77.43,20.22,77.1,20.23Zm1.18.59-.67,0a8.83,8.83,0,0,0-3.15.73c2.19-.31,4-.79,5,.11.49.47-.65,2-.5,2.9.27,1.72,1.09,1.42,8.84,1-7-.23-8.8.86-7.1-3.4C81.05,21.29,79.83,20.85,78.28,20.82ZM94,22.93a.17.17,0,0,0-.14.06c-.59.71,4.15,3.8,4,7.07,0,1.28,0,1.39-2,1.21,1.69.53,3.09.74,3.12-1.1C99,27.08,94.92,23,94,22.93Zm24.28,4.66c1.52,2.33,2.67,3.55,3.93,7.13-1.91,1.39-3.74,3.8-3.59,5.87.12,1.57,2.14,2.41,2.08,3.39-.08,1.3-2.19,3.23-3.59,3.6,2,1.35,4.56-2.4,4.54-4.13,0-.86-1.63-1.2-2.05-2.86-.46-1.87,2.51-4.85,2.78-5.08,1.14,1,2.79,11.61,3.88,6.9-1.17,3.15-2.16-4.5-3.51-7.07.62-.37.33-.25.9-.76-.09-.19,0-.37-.28-.67a6.39,6.39,0,0,0-.88.67A14.09,14.09,0,0,0,118.28,27.59ZM71.74,29.47a43.9,43.9,0,0,1-11.4,1.66C64.34,31.71,67.32,30.88,71.74,29.47ZM57.29,30.79c-.38,0-.9,0-1.6.06a3.82,3.82,0,0,1,2.3.56,9.55,9.55,0,0,1,3,7.07c-.09,2.18-.83,3.54-4.29,2.58s-7.24.32-6.54,4.21c.47,2.63.57,6.11,5.25,5.76-2.89,0-4.6-3.45-4.38-6.43.29-4.08,4-3.78,7.07-3.06,1.66.39,3.19.59,4.07-3.11.33-1.41-.76-4.47-3.54-7.58A10,10,0,0,0,57.29,30.79Zm36.94.31a7.41,7.41,0,0,0-.84,0c-1.61.1-2.54.74-2.62,2C90.6,36,93,40.93,96.5,40.05A7.06,7.06,0,0,1,92,32.81c.06-1.26,1.36-1.58,3.2-1.63C94.87,31.14,94.53,31.11,94.23,31.1Zm-38.66.08c-4.1.1-10.09,2.68-12,3.65-.91.47,3.08,3,2.3,4.1-2.17,3.06-8.7,3.59-11.62,2.81-3.08-.83,2.71-4.92,1-6-2.12-1.31-6.64-.26-11.51,1.82.53,4.45.73,5.17-.26,8.2-.35,1.07-1.64,3.81-4.6,1.51-1.58-1.22-3,.09-3.31,2.5-.46,3.31.19,6.56,3.17,4,1.18-1,3-.52,3.37.45,1.41,4.08,2.55,6.88.64,10.47,9.56-2.58,13.26-1,14.63-.42,1.84.72.13,2.51-1.38,4.57,2.23-2.31,3.33-3.92,1.69-5-2.95-1.87-9.91-.91-14.29.28,1.5-3.2,0-7.67-1-10a2.42,2.42,0,0,0-3.79-.73c-3.19,3.28-2.78-1.81-2.47-3.93.19-1.34,1.07-2.87,2.58-1.8s3.18,2.26,5.08-1.4c1.36-2.63,1.22-5.68.62-8.65,4.83-1.9,8.28-2.83,10.5-1.38,1,.65-3.58,3.72-2,5.2s10.45,1.07,13-2c1.65-2-3.39-4-1.91-4.68,2.86-1.43,8.62-3.61,13.22-3.46A7.56,7.56,0,0,0,55.57,31.18Zm39.16.7a5.24,5.24,0,0,0-1,.12,6.38,6.38,0,0,0,4,.31A16.71,16.71,0,0,0,94.73,31.88Zm-81.24.79a3.37,3.37,0,0,0-2.16.65c-.9.82-.21,3.23-.95,4.54a2.78,2.78,0,0,1-4.72.51c-.53,3.13-1.87,9.5-2.86,9.23,0,0,0,.08.06.09,1,.4,2.44-5.61,3-8.7,1.53,1.63,4,.52,5.05-1.29.73-1.29-.27-3.66.79-4.24,1.21-.67,4.36-.59,3.51.45S12.81,36.56,13.47,38c.76,1.71,6.49,1.86,9.45.14.24,3.44.49,7.58-1.68,9-1.08.69-2.3-1.41-3.65-1.46-2.93-.12-4.63,8.53-1.07,10,1.25.51,1.93-1.38,4-1.72,1.12-.17,2.55,8,1.32,9.83-1.95,2.94-9.4.91-10.73-.62-.68-.79,2.17-2.8,1.32-4.07C11,57,7,56.21,5.72,57.43c-1.54,1.51,1.18,4.68,0,5.67-.79.65-2.63-.42-3.31-1.88.14-2.9.77-12.56-.65-10,0-1.08,0-1.84,0-2.53a26.84,26.84,0,0,0-.11,2.92c1.39-2.52.58,7,.5,10,.92,1.78,2.88,2.69,3.68,2,1.23-1-1.39-4.28.17-5.81,1.25-1.24,4.09-.34,5.89,1.43,1.11,1.08-1.66,3.11-1.26,4.1.61,1.5,9.27,4.39,11.9.64,1.3-1.85-.28-10.68-2-10.27-2.08.5-2.74,2.26-4,1.65-3.31-1.65-1.29-9.11,1-9.06,1.36,0,2.67,2.08,3.76,1.37,2.19-1.43,2.09-6.4,1.85-9.91-3.27,2-9,1.25-9.46.28-.65-1.51,1-3.17,1.83-4.21C16.17,33.14,14.87,32.66,13.49,32.67Zm86.94,3.48c-2,.22-4.21,2.71-3.87,3.26.61,1,2.7-3.1,4.69-3.2a2,2,0,0,0-.43-.06Zm-95.75.73a.25.25,0,0,0-.28.2c-.12.38,1.25-.26.84,1.71-.34,1.65-.92,5.14-2.05,7.33-.14.26-.38-1.71-.64-1.6-.85.34-1.67,7.32-1.1,8,0,0,.33-.66.42-.33.54,1.85-.2,2.82-.17,7.89C1.58,59.67.57,57.6.5,58.41a7.23,7.23,0,0,0,1.31,2.42c-.07-2.77.89-7.38.2-9.13-.09-.22-.41.41-.5.51-.12-2.2,0-5.69.92-7.24.18-.31.38,2.09.56,1.82C4.22,45,4.93,40.94,5.38,38.73,5.62,37.57,5.06,36.9,4.68,36.88Zm96.29,0a.38.38,0,0,0-.26.14c-.06.08,6.36,6.36,4.05,10.11-2.18,3.52-11.79,4-12.61,4.74,3.63-.68,11.58-.3,13.92-5.11C107.72,43.41,102.49,36.71,101,36.91ZM54.53,41.65a1.85,1.85,0,0,0-1.17.34c1.38-.09,4.76,1.41,7.21.25C57.66,42.54,55.84,41.66,54.53,41.65Zm60,0c-3.16.08-7.93,3.45-7.18,4.3,2.8-1.29,2.89-2.85,8.42-4.13A3.27,3.27,0,0,0,114.49,41.68Zm.9.82c1.15,2.15-1.94,7.8,2.19,5.47C114.49,48.55,117.67,43,115.39,42.5ZM89.71,45.64c-5-.09-12.12,2.66-12.18,5.45,0,1.72,5.71,2.53,3.39,4.26C75,59.77,67,58.11,66.75,59.17c3.58,0,10.69.47,15.72-4,1.89-1.71-4.12-3.23-3.79-4.55.59-2.44,8.74-5,13-4.72A10.1,10.1,0,0,0,89.71,45.64Zm-87.42.25a14.85,14.85,0,0,0-.53,2.67,11,11,0,0,1,.48-2.08,3.57,3.57,0,0,0,.31.84A11.23,11.23,0,0,1,2.29,45.89Zm88.23.82c-.91,0-2.22.17-3.67.22,3.69,0,4.51-.43,2.52,3.23-1.57,2.89,3.16,2.59,4.35,2.52-1.27,0-4-.63-2.86-2.63C92.49,47.28,92,46.72,90.52,46.71Zm-29.87.42c-2.73.09-4.52,2.58-6.26,3,1.75,1.05,4.18-3.24,8.31-2.67A5.08,5.08,0,0,0,60.65,47.13Zm45.48.87c-2.73,1.15.72,11.81,3.9,9.68C106.41,56.21,106.5,52,106.13,48Zm-44.94.08a1.2,1.2,0,0,0-.2,0c1.67,2.28,5,6.5,3.23,10.53-4.65-.1-16,2.58-18.25,4.35-3.28,2.53,3.07,4.18,2,5.33-2.08,2.16-8.16,2.61-11.91,1.24C38.19,71.39,46.8,71,48.67,68.32c1-1.5-4.78-2.87-2.78-4.72,2.22-2.05,13.2-4.61,19.23-4.37.08-.28.48-.58.75-1.27,1.21-3.05-2.44-9.51-4.49-9.88Zm53,4.52c-1.77.08-3.76,4.16-4.47,4.32,2.08,1.1,3.21-4.06,5.2-4.07A1.17,1.17,0,0,0,114.19,52.6Zm.28.76c-.43,1.27,2.4,2.08,1,7.33-1.44.11-3.42-.41-5.16,1.68-.55.65-2.46,8.32.59,11.26C106.74,77.8,99.21,78.43,98.3,79c-.57,1.16,9.08-.75,12.63-4.54,1-1.09,9.3-8.3,10.13-7.75.47.31-1.44,5.29-1,6.09s4.42-3.3,5.22-5.08c-1.41,2.06-4.16,4.95-4.32,4.27-.41-1.77,1.9-6.45,0-5.87s-7.76,5.09-9.12,6.57c-1.39-.37-1.92-7.14-.59-10,1-2.05,4.77-.51,5.33-2.22C117.57,57.57,116.34,53.81,114.47,53.36ZM7.71,57.6a1.67,1.67,0,0,0-1.77,1.09c-.42,1.12,1.54,3.78.56,4.86s-2.46,1.1-4.23-1c.48,1.08,2.65,2.81,4.6,1.15,1.32-1.12-1.13-3.48-.59-5s2.85-.81,4.13.23c1.64,1.33-.88,2.6-.54,4.12.83,3.72,9.2,3.93,11,3.43-1.12,3.89-.37,11.84,6,9.4-5.28,1.79-6.71-5.25-5.25-9.88-3.47,1-10.87.11-11.32-2.78-.37-2.38,2.76-3-.14-4.77A5.25,5.25,0,0,0,7.71,57.6ZM74.3,59.39c-.41,0-1.4.21-2.16.26-1,.05-5.41.18-5.45.31s4-.09,5-.12a10.61,10.61,0,0,0,2.72-.45S74.43,59.38,74.3,59.39Zm-12.47.48c-.41,0-.79.07-1.18.11a16.92,16.92,0,0,1,3,.14c-.1,1.79-3.13,11.18,5.3,11.15-6.33-1.49-4.55-7.13-4.29-11.29A18,18,0,0,0,61.83,59.87ZM1.93,62c-.52,2-.11,7.34.9,8.54.51.61.59-1.21,1.57.14s1.82,5.24,1.07,7.16C6.82,76.3,5.78,72.9,5,70.9c-1.14-2.77-2.25.23-2.53-1.57A23.36,23.36,0,0,1,1.93,62Zm32.53,1.94c-.47,0-1,0-1.57,0,2.61.23,3.29.31,3.29,1.23,0,1.38-3.47,3.71-1.75,5,1.56,1.18,2,.74,6,1.23-4-.75-5.41-.89-5.27-2.32s2.49-3,2-4.1C36.82,64.22,35.88,64,34.46,63.94Zm-4.21,0a19.57,19.57,0,0,0-7.58,1.32c-1.16,3.9-1.84,9,1.86,10.24,1.94.65,3.73-2,5.61-1.65,3.16.65,4.7,5.43,2.81,8.48,2.62-1.9,1.28-8.92-3.26-9-2.34,0-4.17,2.33-5.22,1.77-2.69-1.43-2.33-6.35-1.46-9.66,2.69-1,4.1-1.33,9.94-1.48C32.07,64,31.16,64,30.25,64Zm97.83,2.22c-2.06,1-2.16,5-1.15,7.27C126.29,71.28,126.28,67.71,128.08,66.19Zm-52,.62c-3,0-4.79,3.1-7.83,3.53C71,71.77,73.61,66.88,77.5,67A4.71,4.71,0,0,0,76.12,66.81ZM65.6,67c-.27.1-.14,1.1.5,1.88s1.79,1.34,2.13,1.21c.16-.06-.79-.69-1.46-1.46S65.72,67,65.6,67Zm11.11.62a.35.35,0,0,0-.25.31c-.1.46,1.9,1.56,1.85,3.68,0,1.23.88,4.26-2.64,3.84-3.73-.44-8.54-.57-8.84,5.5-.1,2.11-.68,3.65,1,6-4.4.63-17,2.64-17.85,4.57-.92,2.2,3.82,2.85,3.28,3.62-.67,1-6.23,1.62-11.14.9.92,1.75,10.16,1.66,12.46-.73.91-.93-4.09-2-3.39-3.56.89-2,16.15-4.25,18.58-4.19C67.25,84.29,68,82.31,68.21,81c.48-3.76,1.44-5.44,5.84-5,3.56.35,5.65.72,5.69-4.24,0-2-2-4-2.89-4.1A.65.65,0,0,0,76.71,67.62ZM5,73.46c.47,2.84.42,4.25-.7,2.08-.42-.82-1.24-2-1.24-.73.8-.81,1.86,3.2,2.19,2.1C5.71,75.33,5.3,73.46,5,73.46Zm92.49,0c-4.14,0-12.06,3.06-13.41,5.81-.77,1.54,4.8,2.65,3.31,3.76-6.5,4.79-16.13,3.5-16.09,4.46,2.38.33,13.13-.32,17.58-4.77,1.23-1.24-4.09-2.54-3.06-3.93,1.86-2.52,9.58-5.14,13.81-4.83A3.37,3.37,0,0,0,97.48,73.49Zm14.91.19c-1.52,1.4,1.7,5.36-.37,7.92-1.82,2.25-5.17.21-7.13,3.48-1.36,2.28-2.18,6.76,1.66,6.2-2.06-1.35-1.78-3.73-.48-5.86,1.93-3.16,4.94-.72,6.83-3.54A7.51,7.51,0,0,0,112.39,73.68Zm-14.2.62c-.12,0-.22.11-.28.31-.84,2.78-2.17,3.22-2.14,4.6,0,.86.53,1,2.36.73a1.13,1.13,0,0,1-.95-1.15c.09-1.19,1.22-2.32,1.76-3.62C99.07,74.88,98.55,74.25,98.19,74.3Zm-68,.14c2.18,3.16,2.45,5.83,1,7.33-.76.77-4.76-2.86-6.57-1.29-2.69,2.33-1.34,8.28.9,10.44-3.18.3-8.25-.72-10.33-3.12-.88-1,1.07-1.93.22-3.2-1.1-1.66-7.15-4.32-7.52-2.92a1.73,1.73,0,0,0,.14.9c0-.19,0-.33.06-.42,1.28-1.17,5.38,1.64,7.07,2.69.9.56-1,2.47-.28,3.18a13.58,13.58,0,0,0,11.68,3.11c-2.32-2.69-3.67-7.43-1.63-9.82,1.25-1.47,5,1.79,6.94,1C34.08,81.28,32.79,74.91,30.17,74.44ZM28,75.37c-.24.12-.48.24-.7.33C27.48,75.61,27.71,75.49,28,75.37Zm-24.31,0c-.46,3.85,2.39,10,5.73,11.37,2.35,1,0-1.69-1-3.39.81,1.52,2.24,3.29,1.65,3.17C6.75,85.87,3.82,80.3,3.64,75.39Zm69.23,1.07c-.36,0-.6.05-.59.11,0,.26,3.78.62,3.76.28S73.92,76.43,72.87,76.46Zm-47.17,5c-1.41.1-1.33,7.39,1.18,9.26,1.06.79,12.37-1.28,17,1.41-3.07-3.37-14-1.55-16.57-1.94s-2.81-8.86-1.48-8.7A.27.27,0,0,0,25.7,81.46Zm-16.44.9c-2,0,2,3.91,1.62,5.13C12.05,85.81,8.29,83.31,9.26,82.36Zm4.51,2.24c.86.92-1.73,2.41,1.3,4.49C12.75,86.49,16.34,85.54,13.77,84.6Zm98.82,1.71c-2.25,0-4.27,3.06-5.93,4.78,2-1.51,3.94-3.84,6.37-4.72A3.32,3.32,0,0,0,112.59,86.31Zm-.51.76a.17.17,0,0,0-.11.06c-.81.76,1,4.08-.82,6.93-2.36,2.75-8.36,5.31-12,6.77,2.54-.11,9.26-3.47,11.17-5.39-1.07,3.06-2.61,5.52-.51,5.25-1.74-.54.77-4.24,1.46-6.15,2.78-1.84,4.34-3.94,7-6.32-1.64,1.21-4.4,4.22-6,5C113.78,90.65,112.68,87.08,112.08,87.07Zm7.52.56c-4,7.45-1.3,4,1.74.17C118.54,90.37,115.91,95.26,119.6,87.63Zm-48.81.54c-.34.11-.71.7-.56.9,1.2,1.57,2.81,4.14,2.75,4.85-.4,4.77-3.49,3-6.71,2.7-2.19-.23-5.24.91-5.42,2.8-.27,2.83,2.21,5.06,3.88,4.58-2-1.27-2.8-2.79-2.48-4.6.47-2.61,5.37-2.24,7.36-1.89a4,4,0,0,0,4.72-3.81c.08-1.24-1.53-3.33-3.23-5.45A.26.26,0,0,0,70.79,88.17ZM28,91.62c-.35.41,3.65,3.9,3.17,7.19C32.91,96.62,28.31,91.24,28,91.62Zm12.74,0c1.13.94.83,1.41.12,2C39.07,95.28,39,96,41.9,96.84c-1.83-1.52-.81-1.87,0-2.55C43.15,93.1,43,91.78,40.72,91.65Zm-13.86.19c-.28-.21,3.48,4.71,2.49,6.8-.6,1.28-5.59-3-6.82-1.35-.58.77,1.44,4.17,3.32,5.73-2-2.17-3.74-4.79-2.78-5.45,1.48-1,5.39,3.22,7,1.66C31.82,97.44,28.05,92.78,26.86,91.84ZM114.41,96c-.83-.06-3.12,2.89-4.15,4.21,1.17-1.28,3.43-3.71,3.7-3.65s-.15,1.22-.48,1.68c-1.78,2.54-4.55,3.54-6.12,5.62-1.13,1.39-2.45,2.67-2.55,4.4.21-1.23,1.79-3.06,2.81-4.18,2.12-2.48,4-3.41,5.84-5.42.76-.82,1.39-2.37,1.09-2.61A.22.22,0,0,0,114.41,96Zm-14.06.73c-4.33,0-13.47,4.3-13,5.78.23.77,2.87,1.14,2.22,1.8-2.82,2.86-12.06,3.44-12.94,4.21,5.11-.4,11.88-2,14.65-4.69.56-.56-3-1.2-2.58-1.86.61-1,7.85-4.67,12.46-5.22A4.91,4.91,0,0,0,100.35,96.76Zm-.09.61c-.5-.21-5.63,6-1.4,3.82C97.1,101,101.36,97.84,100.26,97.37ZM23.54,98.5c1,3.15,3.05,5.79,5.79,4.6,1.59-.69,7.08,2.58,8.11,6.26-.16-3.13-5.16-7.42-8.17-6.76S26.37,102.49,23.54,98.5Zm-6.48,2.33c-.54,0,2,1.86,3.23,3.42.2.26-1.23-.79-1.6-.84.35.35,2.51,1.65,2.27,1.21-.52-1-3.76-3.32-3.26-3.26,1,.11,8.83,4,6.88,4.66,2.67-.72-5.1-4.35-7.1-5.08A1.1,1.1,0,0,0,17.06,100.83Zm55.16.33c-2.27.19-4.46,1.71-6.65,2.45,2,.6,4.62-2.47,9-2.08A5.06,5.06,0,0,0,72.22,101.16Zm.9,1.07a.64.64,0,0,0-.42.25c1.17,1.14,2.37,1.93,2.58,3.85a2.81,2.81,0,0,1-.65,2.1c.47.25.7,0,1.18.06a3.27,3.27,0,0,0,.73-2.58C76.21,104.47,74.26,102.06,73.12,102.23Zm-41.18,1.88c5.89,6.47,6.19,8.49-7.19,2.5C34.23,113,41.9,112,31.94,104.11Zm-8.2.68a.18.18,0,0,0-.14,0c-.32.15-.38,1.1.42,1.46C24.22,105.76,24.07,104.87,23.74,104.79ZM73,108.57a79.55,79.55,0,0,0-16.05,3c-1.68.59,3.63,2.28,2.69,2.47a25.61,25.61,0,0,1-9.4.22c2.13.7,8.35,1,10.8-.17,1.21-.57-3.94-1.78-2.89-2.16,4.51-1.63,9.94-2.09,16.79-3.34A17.22,17.22,0,0,0,73,108.57Zm30.55.65c-2.24.35-11.49,7.53-5.37,2.44-7.56,5.76,4.29-2.36,5.73-2.41A.68.68,0,0,0,103.58,109.22ZM75,109.39c-1.68.07-1.84,1.86-1.82,3.12s1.51,2.35,3.56,1.88c-1.42-.59-2.09-.79-2.19-2.22a3.6,3.6,0,0,1,.79-2.78A1.93,1.93,0,0,0,75,109.39Zm-35.59.92a5.21,5.21,0,0,0-1.8.15c.12.44,9.72-.1,14.54,1.82C49.79,110.69,42.73,110.28,39.38,110.31Zm-3.23.74a.23.23,0,0,0-.14,0c-.83.4,1.56,3.33,3.79,4.3C37.21,113.58,36.77,111.07,36.15,111.05Zm1.2.25c1.35,3,2.78,4.63,6.24,4.43,2.3-.13,5.21.25,6.93,2-1.56-1.92-3.88-2.51-7.61-2.47C40.35,115.28,38.32,113,37.35,111.3Zm47.31,0c-2.14,0-6.28,2.62-7.56,2.72,1.75.7,4.49-2.17,8.31-2.55A1.35,1.35,0,0,0,84.66,111.3Zm12.68.19C95,111.92,89,114,87.15,115.82c-.27.27,1.46.18,1.21.39-2.21,1.81-9.59,2.58-11.2,3.68-.72.49,1.66.53,1,.87-1.69.91-6.39.55-7.86,1.82,1.17-.64,7.91-1.31,8.65-1.91.5-.4-1.86-.75-1.13-1,2.81-.88,9.1-1.65,11.48-3.73.47-.41-2.24,0-.92-.73A43.52,43.52,0,0,1,97,111.75c.51-.12-1.53,1.19-2.05,1.85C95.6,113.21,98,111.38,97.34,111.49ZM49,111.86c1.5,1.07-2.87,2,.62,2.83C48.34,113.17,52.7,112.39,49,111.86Zm35.6.34a2.08,2.08,0,0,0-1,.25c1.83.67.49,2.88-1.38,3s-3.38-.09-5.08.75-2.55,1.93-2,3.57c-3.15.42-9.23,1.29-11.37,1.77-.32.07.17.21.68.34-.21-.14,0-.33.28-.4,2-.57,8.32-1.11,11.9-1.57a2.15,2.15,0,0,1,.31-2.7c1.06-1.14,2.78-1.31,5.19-1.43a4.3,4.3,0,0,0,3.48-2A1,1,0,0,0,84.63,112.2Zm-37.48,4c.82.63,2.16,1.91,1.43,1.94-1.69.06-6.89-1.57-6.14-.57,2.86,3.87,11.93,3,16.75,4-4.07-1.12-13.15-.42-15.72-3.56-1.27-1.57,5.63,1.43,6.24.42C50.06,117.83,48,116.7,47.15,116.24Z"/><path id="path2291" class="cls-8" d="M90.1,1.62c-1,.36-1.39.34-1.85.87a5.84,5.84,0,0,0,1.57,1c3.42,1.87,2.77,1.67,1.32,3,2.71-1.33.68-1.93-1.24-3a9.06,9.06,0,0,1-1.48-1A5.93,5.93,0,0,1,90.1,1.62ZM78.65,4.74c-.09,0-.05,0-.28.08,1.13,1,4.7,5.9,6.48,4.83C82.81,9.78,80.57,6.47,78.65,4.74ZM99.36,6c.44.57.34.73.15.9C100.53,7,99.65,6.23,99.36,6ZM87.83,8.59a7.47,7.47,0,0,1,3.9,2.58c.8,1,1.41,2.08.84,3,1.61-.88.39-2-.76-3.31A6.71,6.71,0,0,0,87.83,8.59Zm-.62.22c-.54.5-1.26,1.31-1.07,1.49C86.65,10.75,87.23,9.75,87.21,8.81Zm1.32,5c-.42,0,0,1.88.73,3.29a13.15,13.15,0,0,0,3.93,4.77.59.59,0,0,1,.19-.53c-2.92-2.63-2.61-3.25-3.76-4.92s-.46-2.3-1-2.58A.13.13,0,0,0,88.53,13.83Zm22.68,1.52c.3.85-.49.8-1.07.84,3.3,3.2,5.44,5.73,5.68,7.11-.21-2-3.38-5-5.17-6.91C111.58,16.29,111.4,15.51,111.21,15.35Zm-2.36.59c-2.32,1.54-3,2.14-1.82,3.2C106.22,18.17,107.32,17.09,108.85,15.94Zm-6.31,3.62c2.29.91.67,4.42,2.5,4.07C103.76,22.91,105.55,20.33,102.54,19.56Zm-3.32.17c-4.32,1.36-6.37,4.14-8.67,4.88a10.64,10.64,0,0,0,3.54-1.93,8.86,8.86,0,0,1,3.59,3.73c.92,1.81,2.44,4.31.48,5.56,2.56-1.25,1.8-3.14.34-5.59a19.51,19.51,0,0,0-3.63-4.07C96.3,21.36,97.46,20.69,99.22,19.73Zm8.57.06c2.48,1.69,2.51,3,.25,4.51C111.37,22.39,109.85,21.19,107.79,19.79Zm-27.54.89c2.39,1.68-1.68,4.26,1.32,4.44C79.88,24.11,84,21.44,80.25,20.68Zm-22.32.14c-1.76,5.36-.52,8.07,1.29,10.22,1.54,1.83,4.62,6.32,2.05,9.88-1.86,2.59-5.75-.93-8.48.87-2.55,1.69-2,5.33,0,7.75,3.34,4.07,7.18-3.52,9.57-1.32,4.3,4,4.76,8.62,3.12,11.17-.68,1-1.19,4.87-.82,7.16s1.65,3.06,3.85,4.47c2.62,1.67,5.47-2.3,8.22-3.4,2.37-1,6.11,7,1,8.84,5.59.72,4-10.31-1-9.35-3.55.7-5.7,4.83-8.87,3.35-3.81-1.79-3.21-7.27-2.38-10.53,8.17-.85,14.69.07,18.61-5,1.28-1.67-5.45-3.56-4-4.74a33.66,33.66,0,0,1,6-2.95c-2.93.52-4.19.62-6.74,2.84-1.79,1.56,4.78,3.27,3.51,4.77-3.64,4.3-10.55,4.76-16.54,4.38,1-4.09.71-7.07-3-10.78-3-3-7.14,3.62-9.32,1.71-2.73-2.39-2.75-6.05-1.57-7.69,1.94-2.69,6.73,1.54,9.76-1.32,2.53-2.37-.64-7-2-10,1.7-.22,3.78-.44,5.81-.73-2.51.24-5,.2-6.51.25C57.73,27.26,56.93,24.91,57.93,20.82Zm17,.4a13.71,13.71,0,0,0-4,1.49c-2.83,1.51,3.81,2.64,2.75,4.49a6.44,6.44,0,0,1-4,2.61,11.54,11.54,0,0,0,4.52-1.66c2.82-2.38-5.68-4.28-2.73-5.53C72.6,22.13,73.21,21.81,74.91,21.22Zm-5.27,8.59c-1.11.23-2.31.44-3.54.61A20.92,20.92,0,0,0,69.64,29.81Zm44.21-6.54c-.37,0,.83,2.55,1.49,3.39.49.63,1.87,2.44,2,2.19a23.18,23.18,0,0,0-1.88-2.47C114.71,25.45,114,23.27,113.85,23.27Zm4.38,4.46c.07,1.68,0,1.58-.34,2.05C118.68,30.16,118.56,28.58,118.23,27.73Zm1.26.59a24.81,24.81,0,0,1,1.91,3.06A13.68,13.68,0,0,0,119.49,28.32Zm1.91,3.09c.37.83.72,1.73,1.1,2.83C122.69,34.16,122.21,32.91,121.4,31.41ZM92.82,32c-1.08.26-.78,5.26,3,7.11-4.53-3.77-1.66-6.72-2.75-7.08A.8.8,0,0,0,92.82,32Zm30.27,3.35-.06,0c.41,1.31.83,2.58,1.15,3.71s1,4.07,1.77,3.56c-.79.24-1.38-2.39-1.71-3.7C124,37.89,123.57,36.83,123.09,35.37Zm-.71.39a13.31,13.31,0,0,0-1.46,1.6c-1.13,1.44-1.53,2.61-1,3.73-.39-.83.33-2.45,1-3.34S121.92,36.45,122.38,35.76Zm-20.07.73c-.15,0-.24,0-.25.19,0,.62,4.82,4.69,4.46,9.32.58-.49.26-.34.62-.64C107.43,41.36,103.37,36.68,102.31,36.49Zm-2.19.7c-.61,0-2.83,2.37-2.47,2.53s3-2.16,2.58-2.5A.18.18,0,0,0,100.12,37.19Zm19.93,4.07a3.39,3.39,0,0,0,.48.65c1.48,1.48,1.32,1.6,1,2.63a6.23,6.23,0,0,1-1.63,2.53c2.54-2.44,2.49-3.9.25-5.67Zm-3.84.93a.47.47,0,0,0-.17,0c-.3.11.76.3.59,2.36-.09,1-.42,2.41-.09,2.92.24-.1,0-.16.28-.11-.42-1.12.06-2,.15-2.86C117.1,43,116.61,42.25,116.21,42.19Zm-2.56.36c-.62.09-3.2,1.47-7.24,4.44-.18,6.58,1.6,10.11,3,9.68.39-.12-2-1.27-2.28-9.23,5.38-4.27,6.76-4.55,6.71-4.86C113.79,42.54,113.74,42.54,113.65,42.55Zm12.66.51c-.11,0-.33.41-.19.61C126.46,44.21,126.27,43.18,126.31,43.06ZM90.89,46a20.44,20.44,0,0,0-3.4.7c1.94-.23,4.55-.54,4.6.48.07,1.44-2,3.64-1.06,4.44,2.34,2.07,10.51.62,14-2.33,0-.18.27-.78.11-.82-1.83,1.91-10,5.31-13.28,3.34-1.22-.73,2-3.24,1.49-4.68C93,46.19,92,46,90.89,46Zm36.52,2.14a.88.88,0,0,0,0,.22A1,1,0,0,1,127.41,48.17Zm0,2.77c.05.68.1,1.29.12,1.58s0,.53.08.87c0-.33,0-.63-.06-.87S127.52,51.56,127.46,50.94Zm-11.9,2.11s0,0,0,0c-.12.37,1.4,2.42,1.49,4.46.18,4.13-1.51,4-1.18,4.35s2-1.26,1.88-4.32A6.53,6.53,0,0,0,115.56,53.05Zm-1.57.67a29.54,29.54,0,0,0-3,3.51A6.1,6.1,0,0,0,114,53.72ZM127.91,55a9.2,9.2,0,0,0,.34,1.32C128.14,56,128,55.5,127.91,55Zm-.39,3.42c-.75,1.79-1.62,3-2.3,5-.47,1.36.72,2.11.73,2.8a2.92,2.92,0,0,1-.25,1.1c.1-.22.21-.43.33-.67.25-.51-.41-1.21-.7-2.19S126.9,60.4,127.52,58.41ZM114,61.72c-.62,0-1.22.11-1.21.23s2.49.33,2.47,0S114.61,61.71,114,61.72Zm-1.63.31c-1.44-.08-1.75,3.59-1.74,5.25,0,2,.32,4.93,1.21,5.34.09-.19.52-.45.62-.65-1.28-1.06-1-3-1.13-4.55C111.15,65.6,112.64,62.05,112.36,62Zm9.85,4.27c-.46.11-.06,1.19-.5,2.58-.36,1.15-1,2.72-.45,3-.05-1,.58-2.21.87-3.4S122.67,66.19,122.21,66.3Zm5.62.39c-1,.76-1.49,3.76-.93,5.64C126.51,70.27,127,67.56,127.83,66.69Zm-7.8.68a61.43,61.43,0,0,0-7.61,5.92c3,4.59,1.58,9.13-2.11,10.92,5.3-1.79,5.28-9,3-11.26C114.92,71.29,119.4,68.14,120,67.37Zm4.88,1.29c-.26.37-.56.77-1,1.32C124.28,69.51,124.63,69.06,124.91,68.66Zm-103,4.85c1.34,2.3,2.68,2.77,4.16,2.42,1.68-.41,3.37-2.05,4.49-1.52,2,1,3.41,5.09,1.88,7.39s-4.73-1.35-7.13-.65-.68,8.6,1.4,10.08a14.39,14.39,0,0,1-12.12-3.12c1,2.9,8.43,5.27,12.27,3.51C29.18,93.78,31.77,98,30,99.34S24.19,97,23.15,98c-.61.58,2.22,5.3,4.27,5.9,1.4.41,2.76-1,4.72.7-1.54-1.92-2.44-1.08-4.3-1.07-2.54,0-5-4.88-4.46-5.41.94-.9,5.13,3.54,7.21,1.43,1.71-1.74-1.52-5.69-3-8,5.65-.2,13.61-1.2,13.16,2,.64-.61.67-1.1-.31-2,3.73.17,2.25,2.47.76,3.45-1,.66.85,2,1.66,2.25,3.1,1.09,9.62.89,12.94-1.44.93-.65-4.65-3.17-3.87-3.65,4.35-2.66,12.53-3.05,17.6-4.07-4.58.43-13.39,1.25-18.05,3.77-1.06.57,4.44,2.78,3.45,3.7-1.42,1.33-5.31,2-8.53,1.91s-5.91-1.2-4.55-2.16c7.08-5-6.6-4.53-14.54-4.13-2.73-1.51-3.78-9.07-2-9.63,2.23-.68,5.76,3,7.72.34,1.73-2.34.31-7-2.83-7.83-1.4-.37-2.94,1.19-4.3,1.6C24.1,76.17,23,74.78,21.94,73.51Zm89.64.48c-2.86,3.5-7.76,5.07-10.31,5.59a18.45,18.45,0,0,0,10.5-5.11C111.84,73.81,111.69,74.1,111.58,74ZM99,74.22c1.42.66-2.08,4.47-1.51,4.54S101.4,74.88,99,74.22Zm-3.4.61c-3.27.67-6.62,1.62-8.92,3.54s4.5,2.77,2.55,4.55c-4.68,4.27-11.62,4.5-17.88,5.22,2.08,2.65,3.8,4.38,2.84,7.3-1.54,4.62-7.89.39-11,3-1.84,1.55-.36,4.59,2,5.22-1.4-1.09-3.52-3.41-1.89-4.83,2.91-2.51,10,1.19,11.85-3,.82-1.87-1.75-5.87-2.69-7.33,6.29-.45,13.25-1.9,17.82-5.92,1.19-1-5.08-2.61-3.28-4C89.78,76.45,94.29,75.17,95.57,74.83ZM71,76.57c-.37,0-.74.32-1.1.9A4.3,4.3,0,0,1,71,76.57Zm-1.15,1c-2.22,2.58-2.23,8,.7,10C67.76,84.84,68.55,79.7,69.81,77.56Zm37.81,6.68c-2.1.75-3.34,5.37-1.41,6.59C106.53,89.69,105.15,87.42,107.62,84.24Zm5.44,2.49a.33.33,0,0,0-.14.09c-.57.68,1.22,3-.42,6.23C114.75,91.79,113.76,86.69,113.06,86.73Zm7.13.65c-.15-.08-1.46,2.83-2.24,4.1A19.53,19.53,0,0,0,120.19,87.38Zm-8.84.11c-1.47,1-2.91,2.7-4.43,3.77C109.26,90.14,110.22,88.58,111.35,87.49Zm7.22.87c-2.31,2-4.62,4.58-7.16,6.24-.62,1.64-2.81,5.09-1.6,5.78-.46-.88.85-4,1.82-5.67C113.81,92.83,117,90.05,118.57,88.36Zm-8.45,7.44c-3.09,2.52-5.58,3.62-10.47,5.48,3.57-1.2,6.51-2.09,10.33-5.14A1.63,1.63,0,0,1,110.12,95.8Zm4.68.06c-.14,0,.77,1.33-3.14,4.69C114.52,98.64,115.76,96,114.8,95.86ZM101,97l-.31.08c1.23-.11-1.55,2.59-2,3.74C99.88,99.8,102.37,96.75,101,97Zm12.69,0a25.67,25.67,0,0,0-3.31,3.26c0,.08,3.58-3.09,3.37-3.26C113.75,97,113.74,97,113.71,97Zm-14.12.48c-2.68.74-8.62,2.37-10.47,4.52-.48.55,3.1,1.18,2.41,1.85-3.69,3.61-12.17,4.79-15.63,4.88-1.06,2-2.08,4.81.73,5.31-2-1.07-.82-3.32-.34-4.83,2.4-.48,12.54-1.46,16-5.53.81-1-3.2-.84-2.78-1.52C90.56,100.5,96.14,98.68,99.59,97.49ZM74,101.87c4.1,3.62,3,5.36,2.39,6.45.86-.43.87-.42,1.6-.84C78.42,105.11,75.94,102.65,74,101.87Zm-1.63.11c-2.33.17-3.88,2-7.07,2.38,3.65.12,5-1.82,7.52-2.38A3.38,3.38,0,0,0,72.33,102Zm36.92.73c-.4,0-2.86,2.78-4.13,5,1.76-2.7,4.24-4.75,4.18-5A.06.06,0,0,0,109.25,102.71Zm-35.4,6.62c-5.18.47-11.69,1.45-15.41,2.67-.81.26,3.88,1.71,3.11,2-2.44,1.07-6.8,1.37-10.16.73,2.94.61,8.72.91,10.81-.56.67-.48-4.21-2-3.37-2.19C62.18,111.11,69,110.06,73.85,109.33Zm24.42,1.88a15.46,15.46,0,0,0-2.81,2.33C95.54,113.71,98.45,111.41,98.27,111.21Zm-13,.79a4.16,4.16,0,0,0-.59,0c1.6.51,1.8,1.71-.73,3.37-1,.67-4.73.23-6.57,1.46-1.3.87-1.15,2.79-.56,2.55.41-.16-.16-1.42.9-2.27,2.17-1.76,4.94-.59,7.16-1.88C86.4,114.37,88,112,85.27,112Zm-34.78,0c1.43.57-1.42,1.77-.5,2.36C50,113.94,53.25,113,50.49,112Zm33.07,0a11.66,11.66,0,0,0-3,1.18,9.2,9.2,0,0,1-2.52,1c-.71,0-1,.06-1,.14.44.29,2.88-.48,4.43-1.23a20.49,20.49,0,0,0,2.14-1S83.6,112,83.56,112Zm12.46.14a41.46,41.46,0,0,0-7.83,3.28c-.56.29,1.5,0,1.24.45-1.07,1.73-11.67,3.6-11.63,4,0,.19,1.25.31,1.35.62.16.47-1.45.71-2.33.9,1.22.07,3.38-.86,2.73-1a1.78,1.78,0,0,1-1.1-.62c-.19-.33,9.4-1.85,11.68-3.9.29-.27-1.47-.35-1.26-.54C89.61,114.62,95.59,112.38,96,112.17Zm-46,2.24s0,0,0,.06c.2.06.42.09.62.14A5,5,0,0,1,50,114.41Zm-1.71,2.17c.9.54,2.21,1.84,1.49,2.07-1.72.56-4.79-1-6.15-1-.7,0,1.1,1.28,1.94,1.63-.48-.24-2-1.43-1.63-1.4,1.42.08,4.72,1.5,6.43.95C51.44,118.51,49.69,117.25,48.3,116.58Zm21.76,4.15c-3.43.39-6.5.79-5.42,1C64.51,121.5,67.16,121.09,70.06,120.73Zm-19.15.14c3.12.36,6.57.76,6.63.7S54,121.18,50.91,120.87Zm8.26.93c-.28,0-.5.27-.45.28s.87-.15.73-.23A.48.48,0,0,0,59.17,121.8Zm7.94,0c.67.35-.42.53-2.16.62C66.65,122.4,68.26,122.27,67.11,121.85Z"/></g></g></svg>