<svg xmlns="http://www.w3.org/2000/svg" viewBox="0 0 126 126"><g id="Layer_2" data-name="Layer 2"><g id="Layer_1-2" data-name="Layer 1"><path d="M63,126A63,63,0,0,1,62.68,0h.62a63,63,0,0,1,44.48,107.32A62.62,62.62,0,0,1,63.32,126ZM62.71,7.88A55.12,55.12,0,0,0,63,118.12h.28A55.13,55.13,0,0,0,102,24,54.76,54.76,0,0,0,63.28,7.88Z"/><path d="M56.7,123.24A79,79,0,0,1,34.63,92.92a75.55,75.55,0,0,0-15.78,8.65l-3.17-4.44A81.36,81.36,0,0,1,32.74,87.8a78.17,78.17,0,0,1-3.85-22.07H3.94V60.27h25c0-1.18.12-2.37.22-3.56a79.41,79.41,0,0,1,3.79-18.43,81.7,81.7,0,0,1-17.25-9.41l3.17-4.44a76,76,0,0,0,16,8.74A78.09,78.09,0,0,1,56.7,3.37l3.52,4.16A72.61,72.61,0,0,0,40,35a76.44,76.44,0,0,0,20.28,3.51V3.94h5.46V38.52A76.44,76.44,0,0,0,86,35a73,73,0,0,0-11.55-18.8,74.12,74.12,0,0,0-8.68-8.68L69.3,3.37a78.88,78.88,0,0,1,9.32,9.32A78.36,78.36,0,0,1,91.16,33.17a76,76,0,0,0,16-8.74l3.17,4.44a81.58,81.58,0,0,1-17.24,9.4,78.22,78.22,0,0,1,4,22h25v5.46h-25c0,1.38-.13,2.77-.24,4.16A78.73,78.73,0,0,1,93.24,87.8a81.51,81.51,0,0,1,17.08,9.33l-3.17,4.44a75.55,75.55,0,0,0-15.78-8.65A78.09,78.09,0,0,1,69.3,123.24l-3.52-4.17a72.65,72.65,0,0,0,20.46-28,76.23,76.23,0,0,0-20.51-3.59v34.58H60.27V87.48a76.23,76.23,0,0,0-20.51,3.59A73.27,73.27,0,0,0,51.55,110.4a72.45,72.45,0,0,0,8.67,8.67ZM34.35,65.73A72.18,72.18,0,0,0,37.88,86,81.32,81.32,0,0,1,60.27,82V65.73ZM65.73,82a81.67,81.67,0,0,1,22.38,3.91,72.71,72.71,0,0,0,3.31-16.51c.11-1.23.18-2.47.22-3.7H65.73Zm0-21.76h25.9a72.23,72.23,0,0,0-3.69-20.16A81.54,81.54,0,0,1,65.73,44Zm-31.35,0H60.27V44a81.46,81.46,0,0,1-22.2-3.85,73,73,0,0,0-3.49,17.05C34.49,58.21,34.42,59.24,34.38,60.27Z"/></g></g></svg>