<svg xmlns="http://www.w3.org/2000/svg" viewBox="0 0 127.03 88.9"><defs><style>.cls-1{fill:red;}</style></defs><g id="Layer_2" data-name="Layer 2"><g id="Layer_1-2" data-name="Layer 1"><g id="g5360"><g id="g4167"><path id="path4156" class="cls-1" d="M63.48,0S23.77,0,13.81,2.59A16.4,16.4,0,0,0,2.59,13.89C0,23.85,0,44.49,0,44.49S0,65.2,2.59,75A16.16,16.16,0,0,0,13.81,86.23c10,2.67,49.67,2.67,49.67,2.67s39.78,0,49.74-2.59a15.8,15.8,0,0,0,11.15-11.22C127,65.2,127,44.57,127,44.57s.08-20.72-2.66-30.68A15.68,15.68,0,0,0,113.22,2.75C103.26,0,63.48,0,63.48,0ZM50.84,25.42l33,19.07-33,19V25.42Z"/></g></g></g></g></svg>