<svg xmlns="http://www.w3.org/2000/svg" width="348" height="348"><rect x="0" y="0" width="100%" height="100%" fill="rgb(16,112,202)" /><circle cx="0.0" cy="0.0" r="58.0" fill="#222" style="opacity:0.08933333333333333;" /><circle cx="348.0" cy="0.0" r="58.0" fill="#222" style="opacity:0.08933333333333333;" /><circle cx="0.0" cy="348.0" r="58.0" fill="#222" style="opacity:0.08933333333333333;" /><circle cx="348.0" cy="348.0" r="58.0" fill="#222" style="opacity:0.08933333333333333;" /><circle cx="58.0" cy="0.0" r="58.0" fill="#ddd" style="opacity:0.06266666666666666;" /><circle cx="58.0" cy="348.0" r="58.0" fill="#ddd" style="opacity:0.06266666666666666;" /><circle cx="116.0" cy="0.0" r="58.0" fill="#222" style="opacity:0.1;" /><circle cx="116.0" cy="348.0" r="58.0" fill="#222" style="opacity:0.1;" /><circle cx="174.0" cy="0.0" r="58.0" fill="#ddd" style="opacity:0.02;" /><circle cx="174.0" cy="348.0" r="58.0" fill="#ddd" style="opacity:0.02;" /><circle cx="232.0" cy="0.0" r="58.0" fill="#ddd" style="opacity:0.09466666666666668;" /><circle cx="232.0" cy="348.0" r="58.0" fill="#ddd" style="opacity:0.09466666666666668;" /><circle cx="290.0" cy="0.0" r="58.0" fill="#ddd" style="opacity:0.04133333333333333;" /><circle cx="290.0" cy="348.0" r="58.0" fill="#ddd" style="opacity:0.04133333333333333;" /><circle cx="0.0" cy="58.0" r="58.0" fill="#222" style="opacity:0.025333333333333333;" /><circle cx="348.0" cy="58.0" r="58.0" fill="#222" style="opacity:0.025333333333333333;" /><circle cx="58.0" cy="58.0" r="58.0" fill="#222" style="opacity:0.04666666666666667;" /><circle cx="116.0" cy="58.0" r="58.0" fill="#ddd" style="opacity:0.084;" /><circle cx="174.0" cy="58.0" r="58.0" fill="#ddd" style="opacity:0.02;" /><circle cx="232.0" cy="58.0" r="58.0" fill="#222" style="opacity:0.025333333333333333;" /><circle cx="290.0" cy="58.0" r="58.0" fill="#222" style="opacity:0.036000000000000004;" /><circle cx="0.0" cy="116.0" r="58.0" fill="#ddd" style="opacity:0.07333333333333333;" /><circle cx="348.0" cy="116.0" r="58.0" fill="#ddd" style="opacity:0.07333333333333333;" /><circle cx="58.0" cy="116.0" r="58.0" fill="#222" style="opacity:0.04666666666666667;" /><circle cx="116.0" cy="116.0" r="58.0" fill="#ddd" style="opacity:0.02;" /><circle cx="174.0" cy="116.0" r="58.0" fill="#ddd" style="opacity:0.04133333333333333;" /><circle cx="232.0" cy="116.0" r="58.0" fill="#222" style="opacity:0.07866666666666666;" /><circle cx="290.0" cy="116.0" r="58.0" fill="#ddd" style="opacity:0.09466666666666668;" /><circle cx="0.0" cy="174.0" r="58.0" fill="#222" style="opacity:0.036000000000000004;" /><circle cx="348.0" cy="174.0" r="58.0" fill="#222" style="opacity:0.036000000000000004;" /><circle cx="58.0" cy="174.0" r="58.0" fill="#222" style="opacity:0.036000000000000004;" /><circle cx="116.0" cy="174.0" r="58.0" fill="#ddd" style="opacity:0.04133333333333333;" /><circle cx="174.0" cy="174.0" r="58.0" fill="#222" style="opacity:0.08933333333333333;" /><circle cx="232.0" cy="174.0" r="58.0" fill="#ddd" style="opacity:0.06266666666666666;" /><circle cx="290.0" cy="174.0" r="58.0" fill="#ddd" style="opacity:0.03066666666666667;" /><circle cx="0.0" cy="232.0" r="58.0" fill="#ddd" style="opacity:0.084;" /><circle cx="348.0" cy="232.0" r="58.0" fill="#ddd" style="opacity:0.084;" /><circle cx="58.0" cy="232.0" r="58.0" fill="#222" style="opacity:0.068;" /><circle cx="116.0" cy="232.0" r="58.0" fill="#222" style="opacity:0.025333333333333333;" /><circle cx="174.0" cy="232.0" r="58.0" fill="#ddd" style="opacity:0.02;" /><circle cx="232.0" cy="232.0" r="58.0" fill="#ddd" style="opacity:0.07333333333333333;" /><circle cx="290.0" cy="232.0" r="58.0" fill="#222" style="opacity:0.1;" /><circle cx="0.0" cy="290.0" r="58.0" fill="#222" style="opacity:0.036000000000000004;" /><circle cx="348.0" cy="290.0" r="58.0" fill="#222" style="opacity:0.036000000000000004;" /><circle cx="58.0" cy="290.0" r="58.0" fill="#ddd" style="opacity:0.07333333333333333;" /><circle cx="116.0" cy="290.0" r="58.0" fill="#222" style="opacity:0.1;" /><circle cx="174.0" cy="290.0" r="58.0" fill="#ddd" style="opacity:0.03066666666666667;" /><circle cx="232.0" cy="290.0" r="58.0" fill="#ddd" style="opacity:0.09466666666666668;" /><circle cx="290.0" cy="290.0" r="58.0" fill="#222" style="opacity:0.08933333333333333;" /></svg>