<svg xmlns="http://www.w3.org/2000/svg" width="203" height="203"><rect x="0" y="0" width="100%" height="100%" fill="rgb(16,112,202)" /><g fill="#ddd" transform="translate(-33.948, -33.948) rotate(45, 33.948, 33.948)" style="opacity:0.14133333333333334;" ><rect x="24.0" y="0" width="24.0" height="72.0" /><rect x="0" y="24.0" width="72.0" height="24.0" /></g><g fill="#ddd" transform="translate(169.73999999999998, -33.948) rotate(45, 33.948, 33.948)" style="opacity:0.14133333333333334;" ><rect x="24.0" y="0" width="24.0" height="72.0" /><rect x="0" y="24.0" width="72.0" height="24.0" /></g><g fill="#ddd" transform="translate(-33.948, 169.74) rotate(45, 33.948, 33.948)" style="opacity:0.14133333333333334;" ><rect x="24.0" y="0" width="24.0" height="72.0" /><rect x="0" y="24.0" width="72.0" height="24.0" /></g><g fill="#ddd" transform="translate(169.73999999999998, 169.74) rotate(45, 33.948, 33.948)" style="opacity:0.14133333333333334;" ><rect x="24.0" y="0" width="24.0" height="72.0" /><rect x="0" y="24.0" width="72.0" height="24.0" /></g><g fill="#ddd" transform="translate(0.0, -16.974) rotate(45, 33.948, 33.948)" style="opacity:0.08933333333333333;" ><rect x="24.0" y="0" width="24.0" height="72.0" /><rect x="0" y="24.0" width="72.0" height="24.0" /></g><g fill="#ddd" transform="translate(0.0, 186.714) rotate(45, 33.948, 33.948)" style="opacity:0.08933333333333333;" ><rect x="24.0" y="0" width="24.0" height="72.0" /><rect x="0" y="24.0" width="72.0" height="24.0" /></g><g fill="#ddd" transform="translate(33.948, -33.948) rotate(45, 33.948, 33.948)" style="opacity:0.10666666666666667;" ><rect x="24.0" y="0" width="24.0" height="72.0" /><rect x="0" y="24.0" width="72.0" height="24.0" /></g><g fill="#ddd" transform="translate(33.948, 169.74) rotate(45, 33.948, 33.948)" style="opacity:0.10666666666666667;" ><rect x="24.0" y="0" width="24.0" height="72.0" /><rect x="0" y="24.0" width="72.0" height="24.0" /></g><g fill="#222" transform="translate(67.89599999999999, -16.974) rotate(45, 33.948, 33.948)" style="opacity:0.028666666666666667;" ><rect x="24.0" y="0" width="24.0" height="72.0" /><rect x="0" y="24.0" width="72.0" height="24.0" /></g><g fill="#222" transform="translate(67.89599999999999, 186.714) rotate(45, 33.948, 33.948)" style="opacity:0.028666666666666667;" ><rect x="24.0" y="0" width="24.0" height="72.0" /><rect x="0" y="24.0" width="72.0" height="24.0" /></g><g fill="#222" transform="translate(101.844, -33.948) rotate(45, 33.948, 33.948)" style="opacity:0.06333333333333334;" ><rect x="24.0" y="0" width="24.0" height="72.0" /><rect x="0" y="24.0" width="72.0" height="24.0" /></g><g fill="#222" transform="translate(101.844, 169.74) rotate(45, 33.948, 33.948)" style="opacity:0.06333333333333334;" ><rect x="24.0" y="0" width="24.0" height="72.0" /><rect x="0" y="24.0" width="72.0" height="24.0" /></g><g fill="#222" transform="translate(135.792, -16.974) rotate(45, 33.948, 33.948)" style="opacity:0.028666666666666667;" ><rect x="24.0" y="0" width="24.0" height="72.0" /><rect x="0" y="24.0" width="72.0" height="24.0" /></g><g fill="#222" transform="translate(135.792, 186.714) rotate(45, 33.948, 33.948)" style="opacity:0.028666666666666667;" ><rect x="24.0" y="0" width="24.0" height="72.0" /><rect x="0" y="24.0" width="72.0" height="24.0" /></g><g fill="#ddd" transform="translate(-33.948, 0.0) rotate(45, 33.948, 33.948)" style="opacity:0.12400000000000001;" ><rect x="24.0" y="0" width="24.0" height="72.0" /><rect x="0" y="24.0" width="72.0" height="24.0" /></g><g fill="#ddd" transform="translate(169.73999999999998, 0.0) rotate(45, 33.948, 33.948)" style="opacity:0.12400000000000001;" ><rect x="24.0" y="0" width="24.0" height="72.0" /><rect x="0" y="24.0" width="72.0" height="24.0" /></g><g fill="#ddd" transform="translate(0.0, 16.973999999999997) rotate(45, 33.948, 33.948)" style="opacity:0.07200000000000001;" ><rect x="24.0" y="0" width="24.0" height="72.0" /><rect x="0" y="24.0" width="72.0" height="24.0" /></g><g fill="#222" transform="translate(33.948, 0.0) rotate(45, 33.948, 33.948)" style="opacity:0.06333333333333334;" ><rect x="24.0" y="0" width="24.0" height="72.0" /><rect x="0" y="24.0" width="72.0" height="24.0" /></g><g fill="#222" transform="translate(67.89599999999999, 16.973999999999997) rotate(45, 33.948, 33.948)" style="opacity:0.046;" ><rect x="24.0" y="0" width="24.0" height="72.0" /><rect x="0" y="24.0" width="72.0" height="24.0" /></g><g fill="#ddd" transform="translate(101.844, 0.0) rotate(45, 33.948, 33.948)" style="opacity:0.14133333333333334;" ><rect x="24.0" y="0" width="24.0" height="72.0" /><rect x="0" y="24.0" width="72.0" height="24.0" /></g><g fill="#ddd" transform="translate(135.792, 16.973999999999997) rotate(45, 33.948, 33.948)" style="opacity:0.08933333333333333;" ><rect x="24.0" y="0" width="24.0" height="72.0" /><rect x="0" y="24.0" width="72.0" height="24.0" /></g><g fill="#ddd" transform="translate(-33.948, 33.94799999999999) rotate(45, 33.948, 33.948)" style="opacity:0.10666666666666667;" ><rect x="24.0" y="0" width="24.0" height="72.0" /><rect x="0" y="24.0" width="72.0" height="24.0" /></g><g fill="#ddd" transform="translate(169.73999999999998, 33.94799999999999) rotate(45, 33.948, 33.948)" style="opacity:0.10666666666666667;" ><rect x="24.0" y="0" width="24.0" height="72.0" /><rect x="0" y="24.0" width="72.0" height="24.0" /></g><g fill="#222" transform="translate(0.0, 50.922) rotate(45, 33.948, 33.948)" style="opacity:0.046;" ><rect x="24.0" y="0" width="24.0" height="72.0" /><rect x="0" y="24.0" width="72.0" height="24.0" /></g><g fill="#222" transform="translate(33.948, 33.94799999999999) rotate(45, 33.948, 33.948)" style="opacity:0.098;" ><rect x="24.0" y="0" width="24.0" height="72.0" /><rect x="0" y="24.0" width="72.0" height="24.0" /></g><g fill="#222" transform="translate(67.89599999999999, 50.922) rotate(45, 33.948, 33.948)" style="opacity:0.13266666666666665;" ><rect x="24.0" y="0" width="24.0" height="72.0" /><rect x="0" y="24.0" width="72.0" height="24.0" /></g><g fill="#ddd" transform="translate(101.844, 33.94799999999999) rotate(45, 33.948, 33.948)" style="opacity:0.05466666666666667;" ><rect x="24.0" y="0" width="24.0" height="72.0" /><rect x="0" y="24.0" width="72.0" height="24.0" /></g><g fill="#222" transform="translate(135.792, 50.922) rotate(45, 33.948, 33.948)" style="opacity:0.098;" ><rect x="24.0" y="0" width="24.0" height="72.0" /><rect x="0" y="24.0" width="72.0" height="24.0" /></g><g fill="#ddd" transform="translate(-33.948, 67.89599999999999) rotate(45, 33.948, 33.948)" style="opacity:0.02;" ><rect x="24.0" y="0" width="24.0" height="72.0" /><rect x="0" y="24.0" width="72.0" height="24.0" /></g><g fill="#ddd" transform="translate(169.73999999999998, 67.89599999999999) rotate(45, 33.948, 33.948)" style="opacity:0.02;" ><rect x="24.0" y="0" width="24.0" height="72.0" /><rect x="0" y="24.0" width="72.0" height="24.0" /></g><g fill="#222" transform="translate(0.0, 84.86999999999998) rotate(45, 33.948, 33.948)" style="opacity:0.15;" ><rect x="24.0" y="0" width="24.0" height="72.0" /><rect x="0" y="24.0" width="72.0" height="24.0" /></g><g fill="#ddd" transform="translate(33.948, 67.89599999999999) rotate(45, 33.948, 33.948)" style="opacity:0.05466666666666667;" ><rect x="24.0" y="0" width="24.0" height="72.0" /><rect x="0" y="24.0" width="72.0" height="24.0" /></g><g fill="#222" transform="translate(67.89599999999999, 84.86999999999998) rotate(45, 33.948, 33.948)" style="opacity:0.06333333333333334;" ><rect x="24.0" y="0" width="24.0" height="72.0" /><rect x="0" y="24.0" width="72.0" height="24.0" /></g><g fill="#222" transform="translate(101.844, 67.89599999999999) rotate(45, 33.948, 33.948)" style="opacity:0.08066666666666666;" ><rect x="24.0" y="0" width="24.0" height="72.0" /><rect x="0" y="24.0" width="72.0" height="24.0" /></g><g fill="#222" transform="translate(135.792, 84.86999999999998) rotate(45, 33.948, 33.948)" style="opacity:0.028666666666666667;" ><rect x="24.0" y="0" width="24.0" height="72.0" /><rect x="0" y="24.0" width="72.0" height="24.0" /></g><g fill="#ddd" transform="translate(-33.948, 101.844) rotate(45, 33.948, 33.948)" style="opacity:0.14133333333333334;" ><rect x="24.0" y="0" width="24.0" height="72.0" /><rect x="0" y="24.0" width="72.0" height="24.0" /></g><g fill="#ddd" transform="translate(169.73999999999998, 101.844) rotate(45, 33.948, 33.948)" style="opacity:0.14133333333333334;" ><rect x="24.0" y="0" width="24.0" height="72.0" /><rect x="0" y="24.0" width="72.0" height="24.0" /></g><g fill="#222" transform="translate(0.0, 118.81799999999998) rotate(45, 33.948, 33.948)" style="opacity:0.098;" ><rect x="24.0" y="0" width="24.0" height="72.0" /><rect x="0" y="24.0" width="72.0" height="24.0" /></g><g fill="#ddd" transform="translate(33.948, 101.844) rotate(45, 33.948, 33.948)" style="opacity:0.10666666666666667;" ><rect x="24.0" y="0" width="24.0" height="72.0" /><rect x="0" y="24.0" width="72.0" height="24.0" /></g><g fill="#222" transform="translate(67.89599999999999, 118.81799999999998) rotate(45, 33.948, 33.948)" style="opacity:0.15;" ><rect x="24.0" y="0" width="24.0" height="72.0" /><rect x="0" y="24.0" width="72.0" height="24.0" /></g><g fill="#222" transform="translate(101.844, 101.844) rotate(45, 33.948, 33.948)" style="opacity:0.11533333333333334;" ><rect x="24.0" y="0" width="24.0" height="72.0" /><rect x="0" y="24.0" width="72.0" height="24.0" /></g><g fill="#222" transform="translate(135.792, 118.81799999999998) rotate(45, 33.948, 33.948)" style="opacity:0.06333333333333334;" ><rect x="24.0" y="0" width="24.0" height="72.0" /><rect x="0" y="24.0" width="72.0" height="24.0" /></g><g fill="#222" transform="translate(-33.948, 135.79200000000003) rotate(45, 33.948, 33.948)" style="opacity:0.13266666666666665;" ><rect x="24.0" y="0" width="24.0" height="72.0" /><rect x="0" y="24.0" width="72.0" height="24.0" /></g><g fill="#222" transform="translate(169.73999999999998, 135.79200000000003) rotate(45, 33.948, 33.948)" style="opacity:0.13266666666666665;" ><rect x="24.0" y="0" width="24.0" height="72.0" /><rect x="0" y="24.0" width="72.0" height="24.0" /></g><g fill="#222" transform="translate(-33.948, -67.89599999999996) rotate(45, 33.948, 33.948)" style="opacity:0.13266666666666665;" ><rect x="24.0" y="0" width="24.0" height="72.0" /><rect x="0" y="24.0" width="72.0" height="24.0" /></g><g fill="#222" transform="translate(0.0, 152.76600000000002) rotate(45, 33.948, 33.948)" style="opacity:0.11533333333333334;" ><rect x="24.0" y="0" width="24.0" height="72.0" /><rect x="0" y="24.0" width="72.0" height="24.0" /></g><g fill="#222" transform="translate(0.0, -50.92199999999997) rotate(45, 33.948, 33.948)" style="opacity:0.11533333333333334;" ><rect x="24.0" y="0" width="24.0" height="72.0" /><rect x="0" y="24.0" width="72.0" height="24.0" /></g><g fill="#222" transform="translate(33.948, 135.79200000000003) rotate(45, 33.948, 33.948)" style="opacity:0.028666666666666667;" ><rect x="24.0" y="0" width="24.0" height="72.0" /><rect x="0" y="24.0" width="72.0" height="24.0" /></g><g fill="#222" transform="translate(33.948, -67.89599999999996) rotate(45, 33.948, 33.948)" style="opacity:0.028666666666666667;" ><rect x="24.0" y="0" width="24.0" height="72.0" /><rect x="0" y="24.0" width="72.0" height="24.0" /></g><g fill="#222" transform="translate(67.89599999999999, 152.76600000000002) rotate(45, 33.948, 33.948)" style="opacity:0.028666666666666667;" ><rect x="24.0" y="0" width="24.0" height="72.0" /><rect x="0" y="24.0" width="72.0" height="24.0" /></g><g fill="#222" transform="translate(67.89599999999999, -50.92199999999997) rotate(45, 33.948, 33.948)" style="opacity:0.028666666666666667;" ><rect x="24.0" y="0" width="24.0" height="72.0" /><rect x="0" y="24.0" width="72.0" height="24.0" /></g><g fill="#222" transform="translate(101.844, 135.79200000000003) rotate(45, 33.948, 33.948)" style="opacity:0.08066666666666666;" ><rect x="24.0" y="0" width="24.0" height="72.0" /><rect x="0" y="24.0" width="72.0" height="24.0" /></g><g fill="#222" transform="translate(101.844, -67.89599999999996) rotate(45, 33.948, 33.948)" style="opacity:0.08066666666666666;" ><rect x="24.0" y="0" width="24.0" height="72.0" /><rect x="0" y="24.0" width="72.0" height="24.0" /></g><g fill="#ddd" transform="translate(135.792, 152.76600000000002) rotate(45, 33.948, 33.948)" style="opacity:0.14133333333333334;" ><rect x="24.0" y="0" width="24.0" height="72.0" /><rect x="0" y="24.0" width="72.0" height="24.0" /></g><g fill="#ddd" transform="translate(135.792, -50.92199999999997) rotate(45, 33.948, 33.948)" style="opacity:0.14133333333333334;" ><rect x="24.0" y="0" width="24.0" height="72.0" /><rect x="0" y="24.0" width="72.0" height="24.0" /></g></svg>