<svg xmlns="http://www.w3.org/2000/svg" width="482" height="482"><rect x="0" y="0" width="100%" height="100%" fill="rgb(16,112,202)" /><rect x="0" y="12" width="100%" height="11" opacity="0.07200000000000001" fill="#ddd" /><rect x="0" y="37" width="100%" height="17" opacity="0.12400000000000001" fill="#ddd" /><rect x="0" y="61" width="100%" height="11" opacity="0.07200000000000001" fill="#ddd" /><rect x="0" y="92" width="100%" height="5" opacity="0.02" fill="#ddd" /><rect x="0" y="104" width="100%" height="17" opacity="0.12400000000000001" fill="#ddd" /><rect x="0" y="137" width="100%" height="10" opacity="0.06333333333333334" fill="#222" /><rect x="0" y="155" width="100%" height="5" opacity="0.02" fill="#ddd" /><rect x="0" y="180" width="100%" height="18" opacity="0.13266666666666665" fill="#222" /><rect x="0" y="211" width="100%" height="20" opacity="0.15" fill="#222" /><rect x="0" y="237" width="100%" height="16" opacity="0.11533333333333334" fill="#222" /><rect x="0" y="263" width="100%" height="20" opacity="0.15" fill="#222" /><rect x="0" y="301" width="100%" height="19" opacity="0.14133333333333334" fill="#ddd" /><rect x="0" y="335" width="100%" height="19" opacity="0.14133333333333334" fill="#ddd" /><rect x="0" y="373" width="100%" height="14" opacity="0.098" fill="#222" /><rect x="0" y="393" width="100%" height="20" opacity="0.15" fill="#222" /><rect x="0" y="422" width="100%" height="18" opacity="0.13266666666666665" fill="#222" /><rect x="0" y="449" width="100%" height="8" opacity="0.046" fill="#222" /><rect x="0" y="473" width="100%" height="9" opacity="0.05466666666666667" fill="#ddd" /><rect x="12" y="0" width="11" height="100%" opacity="0.07200000000000001" fill="#ddd" /><rect x="37" y="0" width="17" height="100%" opacity="0.12400000000000001" fill="#ddd" /><rect x="61" y="0" width="11" height="100%" opacity="0.07200000000000001" fill="#ddd" /><rect x="92" y="0" width="5" height="100%" opacity="0.02" fill="#ddd" /><rect x="104" y="0" width="17" height="100%" opacity="0.12400000000000001" fill="#ddd" /><rect x="137" y="0" width="10" height="100%" opacity="0.06333333333333334" fill="#222" /><rect x="155" y="0" width="5" height="100%" opacity="0.02" fill="#ddd" /><rect x="180" y="0" width="18" height="100%" opacity="0.13266666666666665" fill="#222" /><rect x="211" y="0" width="20" height="100%" opacity="0.15" fill="#222" /><rect x="237" y="0" width="16" height="100%" opacity="0.11533333333333334" fill="#222" /><rect x="263" y="0" width="20" height="100%" opacity="0.15" fill="#222" /><rect x="301" y="0" width="19" height="100%" opacity="0.14133333333333334" fill="#ddd" /><rect x="335" y="0" width="19" height="100%" opacity="0.14133333333333334" fill="#ddd" /><rect x="373" y="0" width="14" height="100%" opacity="0.098" fill="#222" /><rect x="393" y="0" width="20" height="100%" opacity="0.15" fill="#222" /><rect x="422" y="0" width="18" height="100%" opacity="0.13266666666666665" fill="#222" /><rect x="449" y="0" width="8" height="100%" opacity="0.046" fill="#222" /><rect x="473" y="0" width="9" height="100%" opacity="0.05466666666666667" fill="#ddd" /></svg>