<svg id="Layer_1" data-name="Layer 1" xmlns="http://www.w3.org/2000/svg" viewBox="0 0 45 51.96"><defs><style>.cls-1{fill:#1070ca;}.cls-11,.cls-16,.cls-2,.cls-3,.cls-4,.cls-5,.cls-7{fill:#ddd;}.cls-10,.cls-11,.cls-12,.cls-13,.cls-14,.cls-15,.cls-16,.cls-2,.cls-3,.cls-4,.cls-5,.cls-6,.cls-7,.cls-8,.cls-9{stroke:#000;stroke-width:0.25px;isolation:isolate;}.cls-2{opacity:0.15;}.cls-3{opacity:0.02;}.cls-4{opacity:0.04;}.cls-5{opacity:0.13;}.cls-10,.cls-12,.cls-13,.cls-14,.cls-15,.cls-6,.cls-8,.cls-9{fill:#222;}.cls-6{opacity:0.14;}.cls-7{opacity:0.08;}.cls-8{opacity:0.16;}.cls-9{opacity:0.12;}.cls-10{opacity:0.18;}.cls-11{opacity:0.06;}.cls-12{opacity:0.05;}.cls-13{opacity:0.09;}.cls-14{opacity:0.07;}.cls-15{opacity:0.03;}.cls-16{opacity:0.11;}</style></defs><rect class="cls-1" width="45" height="51.96"/><polyline class="cls-2" points="-5 4.33 -2.5 0 2.5 0 5 4.33 2.5 8.66 -2.5 8.66 -5 4.33"/><polyline class="cls-2" points="40 4.33 42.5 0 47.5 0 50 4.33 47.5 8.66 42.5 8.66 40 4.33"/><polyline class="cls-2" points="-5 47.63 -2.5 43.3 2.5 43.3 5 47.63 2.5 51.96 -2.5 51.96 -5 47.63"/><polyline class="cls-2" points="40 47.63 42.5 43.3 47.5 43.3 50 47.63 47.5 51.96 42.5 51.96 40 47.63"/><polyline class="cls-3" points="2.5 0 5 -4.33 10 -4.33 12.5 0 10 4.33 5 4.33 2.5 0"/><polyline class="cls-3" points="2.5 51.96 5 47.63 10 47.63 12.5 51.96 10 56.29 5 56.29 2.5 51.96"/><polyline class="cls-4" points="10 4.33 12.5 0 17.5 0 20 4.33 17.5 8.66 12.5 8.66 10 4.33"/><polyline class="cls-4" points="10 47.63 12.5 43.3 17.5 43.3 20 47.63 17.5 51.96 12.5 51.96 10 47.63"/><polyline class="cls-3" points="17.5 0 20 -4.33 25 -4.33 27.5 0 25 4.33 20 4.33 17.5 0"/><polyline class="cls-3" points="17.5 51.96 20 47.63 25 47.63 27.5 51.96 25 56.29 20 56.29 17.5 51.96"/><polyline class="cls-2" points="25 4.33 27.5 0 32.5 0 35 4.33 32.5 8.66 27.5 8.66 25 4.33"/><polyline class="cls-2" points="25 47.63 27.5 43.3 32.5 43.3 35 47.63 32.5 51.96 27.5 51.96 25 47.63"/><polyline class="cls-5" points="32.5 0 35 -4.33 40 -4.33 42.5 0 40 4.33 35 4.33 32.5 0"/><polyline class="cls-5" points="32.5 51.96 35 47.63 40 47.63 42.5 51.96 40 56.29 35 56.29 32.5 51.96"/><polyline class="cls-2" points="-5 12.99 -2.5 8.66 2.5 8.66 5 12.99 2.5 17.32 -2.5 17.32 -5 12.99"/><polyline class="cls-2" points="40 12.99 42.5 8.66 47.5 8.66 50 12.99 47.5 17.32 42.5 17.32 40 12.99"/><polyline class="cls-6" points="2.5 8.66 5 4.33 10 4.33 12.5 8.66 10 12.99 5 12.99 2.5 8.66"/><polyline class="cls-2" points="10 12.99 12.5 8.66 17.5 8.66 20 12.99 17.5 17.32 12.5 17.32 10 12.99"/><polyline class="cls-7" points="17.5 8.66 20 4.33 25 4.33 27.5 8.66 25 12.99 20 12.99 17.5 8.66"/><polyline class="cls-4" points="25 12.99 27.5 8.66 32.5 8.66 35 12.99 32.5 17.32 27.5 17.32 25 12.99"/><polyline class="cls-6" points="32.5 8.66 35 4.33 40 4.33 42.5 8.66 40 12.99 35 12.99 32.5 8.66"/><polyline class="cls-8" points="-5 21.65 -2.5 17.32 2.5 17.32 5 21.65 2.5 25.98 -2.5 25.98 -5 21.65"/><polyline class="cls-8" points="40 21.65 42.5 17.32 47.5 17.32 50 21.65 47.5 25.98 42.5 25.98 40 21.65"/><polyline class="cls-9" points="2.5 17.32 5 12.99 10 12.99 12.5 17.32 10 21.65 5 21.65 2.5 17.32"/><polyline class="cls-10" points="10 21.65 12.5 17.32 17.5 17.32 20 21.65 17.5 25.98 12.5 25.98 10 21.65"/><polyline class="cls-11" points="17.5 17.32 20 12.99 25 12.99 27.5 17.32 25 21.65 20 21.65 17.5 17.32"/><polyline class="cls-11" points="25 21.65 27.5 17.32 32.5 17.32 35 21.65 32.5 25.98 27.5 25.98 25 21.65"/><polyline class="cls-12" points="32.5 17.32 35 12.99 40 12.99 42.5 17.32 40 21.65 35 21.65 32.5 17.32"/><polyline class="cls-2" points="-5 30.31 -2.5 25.98 2.5 25.98 5 30.31 2.5 34.64 -2.5 34.64 -5 30.31"/><polyline class="cls-2" points="40 30.31 42.5 25.98 47.5 25.98 50 30.31 47.5 34.64 42.5 34.64 40 30.31"/><polyline class="cls-8" points="2.5 25.98 5 21.65 10 21.65 12.5 25.98 10 30.31 5 30.31 2.5 25.98"/><polyline class="cls-13" points="10 30.31 12.5 25.98 17.5 25.98 20 30.31 17.5 34.64 12.5 34.64 10 30.31"/><polyline class="cls-11" points="17.5 25.98 20 21.65 25 21.65 27.5 25.98 25 30.31 20 30.31 17.5 25.98"/><polyline class="cls-2" points="25 30.31 27.5 25.98 32.5 25.98 35 30.31 32.5 34.64 27.5 34.64 25 30.31"/><polyline class="cls-14" points="32.5 25.98 35 21.65 40 21.65 42.5 25.98 40 30.31 35 30.31 32.5 25.98"/><polyline class="cls-7" points="-5 38.97 -2.5 34.64 2.5 34.64 5 38.97 2.5 43.3 -2.5 43.3 -5 38.97"/><polyline class="cls-7" points="40 38.97 42.5 34.64 47.5 34.64 50 38.97 47.5 43.3 42.5 43.3 40 38.97"/><polyline class="cls-14" points="2.5 34.64 5 30.31 10 30.31 12.5 34.64 10 38.97 5 38.97 2.5 34.64"/><polyline class="cls-6" points="10 38.97 12.5 34.64 17.5 34.64 20 38.97 17.5 43.3 12.5 43.3 10 38.97"/><polyline class="cls-11" points="17.5 34.64 20 30.31 25 30.31 27.5 34.64 25 38.97 20 38.97 17.5 34.64"/><polyline class="cls-15" points="25 38.97 27.5 34.64 32.5 34.64 35 38.97 32.5 43.3 27.5 43.3 25 38.97"/><polyline class="cls-12" points="32.5 34.64 35 30.31 40 30.31 42.5 34.64 40 38.97 35 38.97 32.5 34.64"/><polyline class="cls-3" points="-5 47.63 -2.5 43.3 2.5 43.3 5 47.63 2.5 51.96 -2.5 51.96 -5 47.63"/><polyline class="cls-16" points="2.5 43.3 5 38.97 10 38.97 12.5 43.3 10 47.63 5 47.63 2.5 43.3"/><polyline class="cls-4" points="10 47.63 12.5 43.3 17.5 43.3 20 47.63 17.5 51.96 12.5 51.96 10 47.63"/><polyline class="cls-3" points="17.5 43.3 20 38.97 25 38.97 27.5 43.3 25 47.63 20 47.63 17.5 43.3"/><polyline class="cls-13" points="32.5 43.3 35 38.97 40 38.97 42.5 43.3 40 47.63 35 47.63 32.5 43.3"/></svg>