<svg xmlns="http://www.w3.org/2000/svg" width="132" height="132"><rect x="0" y="0" width="100%" height="100%" fill="rgb(16,112,202)" /><g fill="#222" transform="translate(-11.0, -16.5)" style="opacity:0.028666666666666667;" ><rect x="11.0" y="0" width="11.0" height="33.0" /><rect x="0" y="11.0" width="33.0" height="11.0" /></g><g fill="#222" transform="translate(121.0, -16.5)" style="opacity:0.028666666666666667;" ><rect x="11.0" y="0" width="11.0" height="33.0" /><rect x="0" y="11.0" width="33.0" height="11.0" /></g><g fill="#222" transform="translate(-11.0, 115.5)" style="opacity:0.028666666666666667;" ><rect x="11.0" y="0" width="11.0" height="33.0" /><rect x="0" y="11.0" width="33.0" height="11.0" /></g><g fill="#222" transform="translate(121.0, 115.5)" style="opacity:0.028666666666666667;" ><rect x="11.0" y="0" width="11.0" height="33.0" /><rect x="0" y="11.0" width="33.0" height="11.0" /></g><g fill="#ddd" transform="translate(11.0, -16.5)" style="opacity:0.10666666666666667;" ><rect x="11.0" y="0" width="11.0" height="33.0" /><rect x="0" y="11.0" width="33.0" height="11.0" /></g><g fill="#ddd" transform="translate(11.0, 115.5)" style="opacity:0.10666666666666667;" ><rect x="11.0" y="0" width="11.0" height="33.0" /><rect x="0" y="11.0" width="33.0" height="11.0" /></g><g fill="#ddd" transform="translate(33.0, -16.5)" style="opacity:0.10666666666666667;" ><rect x="11.0" y="0" width="11.0" height="33.0" /><rect x="0" y="11.0" width="33.0" height="11.0" /></g><g fill="#ddd" transform="translate(33.0, 115.5)" style="opacity:0.10666666666666667;" ><rect x="11.0" y="0" width="11.0" height="33.0" /><rect x="0" y="11.0" width="33.0" height="11.0" /></g><g fill="#222" transform="translate(55.0, -16.5)" style="opacity:0.08066666666666666;" ><rect x="11.0" y="0" width="11.0" height="33.0" /><rect x="0" y="11.0" width="33.0" height="11.0" /></g><g fill="#222" transform="translate(55.0, 115.5)" style="opacity:0.08066666666666666;" ><rect x="11.0" y="0" width="11.0" height="33.0" /><rect x="0" y="11.0" width="33.0" height="11.0" /></g><g fill="#222" transform="translate(77.0, -16.5)" style="opacity:0.046;" ><rect x="11.0" y="0" width="11.0" height="33.0" /><rect x="0" y="11.0" width="33.0" height="11.0" /></g><g fill="#222" transform="translate(77.0, 115.5)" style="opacity:0.046;" ><rect x="11.0" y="0" width="11.0" height="33.0" /><rect x="0" y="11.0" width="33.0" height="11.0" /></g><g fill="#222" transform="translate(99.0, -16.5)" style="opacity:0.06333333333333334;" ><rect x="11.0" y="0" width="11.0" height="33.0" /><rect x="0" y="11.0" width="33.0" height="11.0" /></g><g fill="#222" transform="translate(99.0, 115.5)" style="opacity:0.06333333333333334;" ><rect x="11.0" y="0" width="11.0" height="33.0" /><rect x="0" y="11.0" width="33.0" height="11.0" /></g><g fill="#ddd" transform="translate(0.0, 5.5)" style="opacity:0.05466666666666667;" ><rect x="11.0" y="0" width="11.0" height="33.0" /><rect x="0" y="11.0" width="33.0" height="11.0" /></g><g fill="#ddd" transform="translate(132.0, 5.5)" style="opacity:0.05466666666666667;" ><rect x="11.0" y="0" width="11.0" height="33.0" /><rect x="0" y="11.0" width="33.0" height="11.0" /></g><g fill="#222" transform="translate(22.0, 5.5)" style="opacity:0.08066666666666666;" ><rect x="11.0" y="0" width="11.0" height="33.0" /><rect x="0" y="11.0" width="33.0" height="11.0" /></g><g fill="#ddd" transform="translate(44.0, 5.5)" style="opacity:0.07200000000000001;" ><rect x="11.0" y="0" width="11.0" height="33.0" /><rect x="0" y="11.0" width="33.0" height="11.0" /></g><g fill="#ddd" transform="translate(66.0, 5.5)" style="opacity:0.10666666666666667;" ><rect x="11.0" y="0" width="11.0" height="33.0" /><rect x="0" y="11.0" width="33.0" height="11.0" /></g><g fill="#ddd" transform="translate(88.0, 5.5)" style="opacity:0.07200000000000001;" ><rect x="11.0" y="0" width="11.0" height="33.0" /><rect x="0" y="11.0" width="33.0" height="11.0" /></g><g fill="#ddd" transform="translate(110.0, 5.5)" style="opacity:0.02;" ><rect x="11.0" y="0" width="11.0" height="33.0" /><rect x="0" y="11.0" width="33.0" height="11.0" /></g><g fill="#222" transform="translate(-11.0, 27.5)" style="opacity:0.028666666666666667;" ><rect x="11.0" y="0" width="11.0" height="33.0" /><rect x="0" y="11.0" width="33.0" height="11.0" /></g><g fill="#222" transform="translate(121.0, 27.5)" style="opacity:0.028666666666666667;" ><rect x="11.0" y="0" width="11.0" height="33.0" /><rect x="0" y="11.0" width="33.0" height="11.0" /></g><g fill="#ddd" transform="translate(11.0, 27.5)" style="opacity:0.10666666666666667;" ><rect x="11.0" y="0" width="11.0" height="33.0" /><rect x="0" y="11.0" width="33.0" height="11.0" /></g><g fill="#222" transform="translate(33.0, 27.5)" style="opacity:0.046;" ><rect x="11.0" y="0" width="11.0" height="33.0" /><rect x="0" y="11.0" width="33.0" height="11.0" /></g><g fill="#ddd" transform="translate(55.0, 27.5)" style="opacity:0.07200000000000001;" ><rect x="11.0" y="0" width="11.0" height="33.0" /><rect x="0" y="11.0" width="33.0" height="11.0" /></g><g fill="#ddd" transform="translate(77.0, 27.5)" style="opacity:0.08933333333333333;" ><rect x="11.0" y="0" width="11.0" height="33.0" /><rect x="0" y="11.0" width="33.0" height="11.0" /></g><g fill="#222" transform="translate(99.0, 27.5)" style="opacity:0.046;" ><rect x="11.0" y="0" width="11.0" height="33.0" /><rect x="0" y="11.0" width="33.0" height="11.0" /></g><g fill="#ddd" transform="translate(0.0, 49.5)" style="opacity:0.02;" ><rect x="11.0" y="0" width="11.0" height="33.0" /><rect x="0" y="11.0" width="33.0" height="11.0" /></g><g fill="#ddd" transform="translate(132.0, 49.5)" style="opacity:0.02;" ><rect x="11.0" y="0" width="11.0" height="33.0" /><rect x="0" y="11.0" width="33.0" height="11.0" /></g><g fill="#ddd" transform="translate(22.0, 49.5)" style="opacity:0.05466666666666667;" ><rect x="11.0" y="0" width="11.0" height="33.0" /><rect x="0" y="11.0" width="33.0" height="11.0" /></g><g fill="#222" transform="translate(44.0, 49.5)" style="opacity:0.15;" ><rect x="11.0" y="0" width="11.0" height="33.0" /><rect x="0" y="11.0" width="33.0" height="11.0" /></g><g fill="#222" transform="translate(66.0, 49.5)" style="opacity:0.028666666666666667;" ><rect x="11.0" y="0" width="11.0" height="33.0" /><rect x="0" y="11.0" width="33.0" height="11.0" /></g><g fill="#222" transform="translate(88.0, 49.5)" style="opacity:0.08066666666666666;" ><rect x="11.0" y="0" width="11.0" height="33.0" /><rect x="0" y="11.0" width="33.0" height="11.0" /></g><g fill="#ddd" transform="translate(110.0, 49.5)" style="opacity:0.12400000000000001;" ><rect x="11.0" y="0" width="11.0" height="33.0" /><rect x="0" y="11.0" width="33.0" height="11.0" /></g><g fill="#222" transform="translate(-11.0, 71.5)" style="opacity:0.15;" ><rect x="11.0" y="0" width="11.0" height="33.0" /><rect x="0" y="11.0" width="33.0" height="11.0" /></g><g fill="#222" transform="translate(121.0, 71.5)" style="opacity:0.15;" ><rect x="11.0" y="0" width="11.0" height="33.0" /><rect x="0" y="11.0" width="33.0" height="11.0" /></g><g fill="#222" transform="translate(11.0, 71.5)" style="opacity:0.13266666666666665;" ><rect x="11.0" y="0" width="11.0" height="33.0" /><rect x="0" y="11.0" width="33.0" height="11.0" /></g><g fill="#ddd" transform="translate(33.0, 71.5)" style="opacity:0.08933333333333333;" ><rect x="11.0" y="0" width="11.0" height="33.0" /><rect x="0" y="11.0" width="33.0" height="11.0" /></g><g fill="#ddd" transform="translate(55.0, 71.5)" style="opacity:0.03733333333333333;" ><rect x="11.0" y="0" width="11.0" height="33.0" /><rect x="0" y="11.0" width="33.0" height="11.0" /></g><g fill="#222" transform="translate(77.0, 71.5)" style="opacity:0.046;" ><rect x="11.0" y="0" width="11.0" height="33.0" /><rect x="0" y="11.0" width="33.0" height="11.0" /></g><g fill="#222" transform="translate(99.0, 71.5)" style="opacity:0.11533333333333334;" ><rect x="11.0" y="0" width="11.0" height="33.0" /><rect x="0" y="11.0" width="33.0" height="11.0" /></g><g fill="#ddd" transform="translate(0.0, 93.5)" style="opacity:0.07200000000000001;" ><rect x="11.0" y="0" width="11.0" height="33.0" /><rect x="0" y="11.0" width="33.0" height="11.0" /></g><g fill="#ddd" transform="translate(132.0, 93.5)" style="opacity:0.07200000000000001;" ><rect x="11.0" y="0" width="11.0" height="33.0" /><rect x="0" y="11.0" width="33.0" height="11.0" /></g><g fill="#222" transform="translate(22.0, 93.5)" style="opacity:0.11533333333333334;" ><rect x="11.0" y="0" width="11.0" height="33.0" /><rect x="0" y="11.0" width="33.0" height="11.0" /></g><g fill="#222" transform="translate(44.0, 93.5)" style="opacity:0.046;" ><rect x="11.0" y="0" width="11.0" height="33.0" /><rect x="0" y="11.0" width="33.0" height="11.0" /></g><g fill="#222" transform="translate(66.0, 93.5)" style="opacity:0.08066666666666666;" ><rect x="11.0" y="0" width="11.0" height="33.0" /><rect x="0" y="11.0" width="33.0" height="11.0" /></g><g fill="#222" transform="translate(88.0, 93.5)" style="opacity:0.098;" ><rect x="11.0" y="0" width="11.0" height="33.0" /><rect x="0" y="11.0" width="33.0" height="11.0" /></g><g fill="#222" transform="translate(110.0, 93.5)" style="opacity:0.028666666666666667;" ><rect x="11.0" y="0" width="11.0" height="33.0" /><rect x="0" y="11.0" width="33.0" height="11.0" /></g></svg>