<svg xmlns="http://www.w3.org/2000/svg" width="112" height="112"><rect x="0" y="0" width="100%" height="100%" fill="rgb(16,112,202)" /><circle cx="9.375" cy="9.375" r="7.5" fill="none" stroke="#000" style="opacity:0.10400000000000002;stroke-width:3.75px;" /><circle cx="28.125" cy="9.375" r="7.5" fill="none" stroke="#000" style="opacity:0.03866666666666667;stroke-width:3.75px;" /><circle cx="46.875" cy="9.375" r="7.5" fill="none" stroke="#000" style="opacity:0.14133333333333334;stroke-width:3.75px;" /><circle cx="65.625" cy="9.375" r="7.5" fill="none" stroke="#000" style="opacity:0.09466666666666668;stroke-width:3.75px;" /><circle cx="84.375" cy="9.375" r="7.5" fill="none" stroke="#000" style="opacity:0.048;stroke-width:3.75px;" /><circle cx="103.125" cy="9.375" r="7.5" fill="none" stroke="#000" style="opacity:0.09466666666666668;stroke-width:3.75px;" /><circle cx="9.375" cy="28.125" r="7.5" fill="none" stroke="#000" style="opacity:0.06666666666666667;stroke-width:3.75px;" /><circle cx="28.125" cy="28.125" r="7.5" fill="none" stroke="#000" style="opacity:0.06666666666666667;stroke-width:3.75px;" /><circle cx="46.875" cy="28.125" r="7.5" fill="none" stroke="#000" style="opacity:0.12266666666666667;stroke-width:3.75px;" /><circle cx="65.625" cy="28.125" r="7.5" fill="none" stroke="#000" style="opacity:0.03866666666666667;stroke-width:3.75px;" /><circle cx="84.375" cy="28.125" r="7.5" fill="none" stroke="#000" style="opacity:0.14133333333333334;stroke-width:3.75px;" /><circle cx="103.125" cy="28.125" r="7.5" fill="none" stroke="#000" style="opacity:0.08533333333333334;stroke-width:3.75px;" /><circle cx="9.375" cy="46.875" r="7.5" fill="none" stroke="#000" style="opacity:0.16;stroke-width:3.75px;" /><circle cx="28.125" cy="46.875" r="7.5" fill="none" stroke="#000" style="opacity:0.16;stroke-width:3.75px;" /><circle cx="46.875" cy="46.875" r="7.5" fill="none" stroke="#000" style="opacity:0.132;stroke-width:3.75px;" /><circle cx="65.625" cy="46.875" r="7.5" fill="none" stroke="#000" style="opacity:0.05733333333333333;stroke-width:3.75px;" /><circle cx="84.375" cy="46.875" r="7.5" fill="none" stroke="#000" style="opacity:0.048;stroke-width:3.75px;" /><circle cx="103.125" cy="46.875" r="7.5" fill="none" stroke="#000" style="opacity:0.12266666666666667;stroke-width:3.75px;" /><circle cx="9.375" cy="65.625" r="7.5" fill="none" stroke="#000" style="opacity:0.16;stroke-width:3.75px;" /><circle cx="28.125" cy="65.625" r="7.5" fill="none" stroke="#000" style="opacity:0.12266666666666667;stroke-width:3.75px;" /><circle cx="46.875" cy="65.625" r="7.5" fill="none" stroke="#000" style="opacity:0.16;stroke-width:3.75px;" /><circle cx="65.625" cy="65.625" r="7.5" fill="none" stroke="#000" style="opacity:0.08533333333333334;stroke-width:3.75px;" /><circle cx="84.375" cy="65.625" r="7.5" fill="none" stroke="#000" style="opacity:0.15066666666666667;stroke-width:3.75px;" /><circle cx="103.125" cy="65.625" r="7.5" fill="none" stroke="#000" style="opacity:0.06666666666666667;stroke-width:3.75px;" /><circle cx="9.375" cy="84.375" r="7.5" fill="none" stroke="#000" style="opacity:0.11333333333333334;stroke-width:3.75px;" /><circle cx="28.125" cy="84.375" r="7.5" fill="none" stroke="#000" style="opacity:0.12266666666666667;stroke-width:3.75px;" /><circle cx="46.875" cy="84.375" r="7.5" fill="none" stroke="#000" style="opacity:0.02;stroke-width:3.75px;" /><circle cx="65.625" cy="84.375" r="7.5" fill="none" stroke="#000" style="opacity:0.029333333333333336;stroke-width:3.75px;" /><circle cx="84.375" cy="84.375" r="7.5" fill="none" stroke="#000" style="opacity:0.05733333333333333;stroke-width:3.75px;" /><circle cx="103.125" cy="84.375" r="7.5" fill="none" stroke="#000" style="opacity:0.12266666666666667;stroke-width:3.75px;" /><circle cx="9.375" cy="103.125" r="7.5" fill="none" stroke="#000" style="opacity:0.14133333333333334;stroke-width:3.75px;" /><circle cx="28.125" cy="103.125" r="7.5" fill="none" stroke="#000" style="opacity:0.06666666666666667;stroke-width:3.75px;" /><circle cx="46.875" cy="103.125" r="7.5" fill="none" stroke="#000" style="opacity:0.14133333333333334;stroke-width:3.75px;" /><circle cx="65.625" cy="103.125" r="7.5" fill="none" stroke="#000" style="opacity:0.11333333333333334;stroke-width:3.75px;" /><circle cx="84.375" cy="103.125" r="7.5" fill="none" stroke="#000" style="opacity:0.132;stroke-width:3.75px;" /><circle cx="103.125" cy="103.125" r="7.5" fill="none" stroke="#000" style="opacity:0.14133333333333334;stroke-width:3.75px;" /></svg>