<svg xmlns="http://www.w3.org/2000/svg" viewBox="0 0 347.61 44.3"><defs><style>.cls-1{fill:#1070ca;}</style></defs><g id="Layer_2" data-name="Layer 2"><g id="Layer_1-2" data-name="Layer 1"><path class="cls-1" d="M19.55,29.22c0,7.2-2.37,9.66-6.66,9.66-3.72,0-6.79-2.15-6.79-9.66V0H0V29.09C0,40.88,5.68,44.3,12.79,44.3s12.84-3.24,12.84-15.42V0H19.54Z"/><rect class="cls-1" x="29.3" y="2.68" width="6.1" height="30.85"/><rect class="cls-1" x="39.06" width="6.1" height="36.51"/><rect class="cls-1" x="9.77" y="2.68" width="6.1" height="30.85"/><path d="M64.08,7.79v15c0,6.55,3.3,8.25,6.41,8.25,3.68,0,6.41-1.74,6.41-8.25v-15h1.81V22.7c0,7.78-3.69,10.18-8.28,10.18-4.38,0-8.18-2.65-8.18-9.87V7.79Z"/><path d="M83.79,19.33c0-1.56,0-3.06,0-4.47h1.61c.07.56.1,2.84.07,3.34a5.21,5.21,0,0,1,5.24-3.77c2.83,0,5.32,1.79,5.32,6.68V32.6H94.35V21.4c0-3.14-1.16-5.18-3.89-5.18-3.73,0-5,3.46-5,7.31V32.6H83.79Z"/><path d="M101.14,27.69a4.25,4.25,0,0,0,4.46,3.66c2.79,0,3.92-1.44,3.92-3.41s-.76-3-4.28-3.93c-4.11-1.11-5.12-2.5-5.12-4.85s1.65-4.73,5.25-4.73a5.27,5.27,0,0,1,5.57,5H109.3a3.82,3.82,0,0,0-4-3.31c-2.73,0-3.51,1.51-3.51,2.92,0,1.61.75,2.42,3.87,3.27,4.49,1.21,5.59,2.85,5.59,5.51,0,3.22-2.34,5.22-5.7,5.22a5.7,5.7,0,0,1-6.1-5.33Z"/><path d="M126.68,27.42c0,1.73,0,4.48,0,5.18h-1.58c-.06-.47-.09-1.63-.09-3.07A4.88,4.88,0,0,1,120,33c-2.3,0-5.19-1-5.19-6.42V14.86h1.62v11.3c0,2.57.72,5.07,3.83,5.07C123.72,31.23,125,29,125,24V14.86h1.64Z"/><path d="M133.49,30v9.7h-1.65V19.22c0-1.46,0-3,0-4.36h1.61c.07.67.07,1.73.07,3.17a5.75,5.75,0,0,1,5.55-3.6c3.73,0,6.33,3.51,6.33,8.84,0,6.38-3,9.75-6.87,9.75A5.09,5.09,0,0,1,133.49,30Zm10.14-6.65c0-4.1-1.76-7.16-4.87-7.16-3.8,0-5.37,2.68-5.37,7.48s1.23,7.64,5.15,7.64C141.81,31.3,143.63,28.21,143.63,23.34Z"/><path d="M149.91,24c0,4.52,2.07,7.35,5.09,7.35A4.48,4.48,0,0,0,159.52,28h1.67c-.66,2.34-2.34,5-6.26,5-4.82,0-6.69-4.64-6.69-9.15,0-5.08,2.25-9.44,6.88-9.44,4.89,0,6.45,4.71,6.45,8.07,0,.5,0,1,0,1.46Zm10-1.6c0-3.48-1.72-6.22-4.8-6.22-3.23,0-4.71,2.53-5.05,6.22Z"/><path d="M165.41,19.68c0-2.95,0-4.23,0-4.82H167c0,.56.06,1.71.06,3.95a6.06,6.06,0,0,1,5.5-4.38v2c-3.29.24-5.5,2.76-5.5,7V32.6h-1.64Z"/><path d="M176.42,14.86c2.55,8.07,4.31,13.6,4.9,15.87h0c.35-1.35,2.12-6.64,5.15-15.87h1.74l-6,17.74h-2l-5.63-17.74Z"/><path d="M191.41,6.47h1.64V9.94h-1.64Zm0,8.39h1.64V32.6h-1.64Z"/><path d="M198.12,27.69a4.26,4.26,0,0,0,4.46,3.66c2.8,0,3.92-1.44,3.92-3.41s-.76-3-4.27-3.93c-4.11-1.11-5.12-2.5-5.12-4.85s1.65-4.73,5.25-4.73a5.26,5.26,0,0,1,5.56,5h-1.64a3.82,3.82,0,0,0-4-3.31c-2.72,0-3.5,1.51-3.5,2.92,0,1.61.75,2.42,3.87,3.27,4.48,1.21,5.58,2.85,5.58,5.51,0,3.22-2.33,5.22-5.69,5.22a5.69,5.69,0,0,1-6.1-5.33Z"/><path d="M212.58,24c0,4.52,2.06,7.35,5.08,7.35A4.48,4.48,0,0,0,222.18,28h1.68c-.67,2.34-2.34,5-6.26,5-4.82,0-6.7-4.64-6.7-9.15,0-5.08,2.25-9.44,6.89-9.44,4.88,0,6.44,4.71,6.44,8.07,0,.5,0,1,0,1.46Zm9.94-1.6c0-3.48-1.71-6.22-4.8-6.22s-4.7,2.53-5.05,6.22Z"/><path d="M240.5,6.47v21c0,1.7,0,3.34,0,5.11H239c-.06-.43-.1-2.08-.1-3-.79,2.15-2.55,3.38-5.3,3.38-4.11,0-6.58-3.76-6.58-9.08,0-5.47,2.69-9.51,7-9.51,3.15,0,4.41,1.51,4.88,2.64V6.47Zm-11.79,17.4c0,4.82,2.22,7.43,4.93,7.43,4.16,0,5.28-3.22,5.28-8,0-4.54-1-7.16-5-7.16C230.81,16.15,228.71,18.94,228.71,23.87Z"/><path d="M259.35,8h7.93c4.06,0,6.85,2.53,6.85,6.93s-2.77,7.1-7.07,7.1h-5.91V32.8h-1.8Zm1.8,12.21h6.05c3.55,0,5-2.1,5-5.21,0-3.32-2-5.17-4.9-5.17h-6.18Z"/><path d="M288.22,29.4a24,24,0,0,0,.22,3.4h-1.58a13.38,13.38,0,0,1-.28-2.71,5.15,5.15,0,0,1-5.18,3.13,5,5,0,0,1-5.25-5.32c0-3.91,2.69-5.68,7.44-5.68h3v-1.8c0-1.76-.48-4.11-4.05-4.11-3.17,0-3.64,1.86-4,3.31H276.9c.2-2,1.29-5,5.67-5,3.62,0,5.65,1.71,5.65,5.62Zm-1.61-5.63h-3.07c-3.5,0-5.66,1-5.66,4.05a3.47,3.47,0,0,0,3.61,3.73c4.49,0,5.12-3.34,5.12-7.14Z"/><path d="M295.06,30.2v9.69h-1.65V19.42c0-1.45,0-3,0-4.36H295c.07.67.07,1.73.07,3.17a5.75,5.75,0,0,1,5.55-3.6c3.73,0,6.33,3.51,6.33,8.84,0,6.38-3,9.75-6.87,9.75A5.1,5.1,0,0,1,295.06,30.2Zm10.14-6.66c0-4.09-1.76-7.15-4.87-7.15-3.8,0-5.37,2.67-5.37,7.47s1.23,7.65,5.15,7.65C303.38,31.51,305.2,28.41,305.2,23.54Z"/><path d="M311.48,24.16c0,4.52,2.07,7.35,5.09,7.35a4.48,4.48,0,0,0,4.52-3.3h1.67c-.66,2.33-2.34,5-6.26,5-4.82,0-6.69-4.64-6.69-9.15,0-5.08,2.25-9.44,6.88-9.44,4.89,0,6.45,4.72,6.45,8.08,0,.49,0,1,0,1.45Zm9.95-1.59c0-3.48-1.72-6.23-4.8-6.23-3.24,0-4.71,2.54-5.05,6.23Z"/><path d="M327,19.88c0-2.95,0-4.23,0-4.82h1.62c0,.56.06,1.71.06,4a6.07,6.07,0,0,1,5.5-4.38v2c-3.29.24-5.5,2.76-5.5,7V32.8H327Z"/><path d="M337.49,27.89A4.25,4.25,0,0,0,342,31.55c2.79,0,3.92-1.44,3.92-3.4s-.76-3-4.28-3.94c-4.11-1.1-5.12-2.5-5.12-4.84s1.65-4.74,5.25-4.74a5.27,5.27,0,0,1,5.57,5h-1.64a3.82,3.82,0,0,0-4-3.3c-2.73,0-3.51,1.5-3.51,2.91,0,1.61.75,2.42,3.87,3.27,4.49,1.21,5.59,2.85,5.59,5.51,0,3.22-2.34,5.22-5.7,5.22a5.7,5.7,0,0,1-6.1-5.33Z"/></g></g></svg>